# Blender 4.5.7 LTS
# www.blender.org
mtllib Rob.mtl
o body
v 1.456589 -1.834540 0.773120
v 1.413439 1.842421 0.449712
v 1.401425 -1.842421 -0.773120
v 1.413439 1.842421 -0.449712
v 0.000000 -1.842421 -0.773120
v 0.000000 1.842421 -0.449712
v 0.000000 -1.842421 0.773120
v 0.000000 1.842421 0.449712
v 1.266195 -0.396353 -0.773120
v 1.226792 -0.396353 0.773120
v 0.000000 -0.341189 0.773120
v 0.000000 -0.341189 -0.672446
v 1.488519 0.920454 -0.773120
v 1.473162 0.920454 0.773120
v 0.000000 0.991379 0.773120
v 0.000000 0.991379 -0.773120
v 4.337070 1.303916 -0.244702
v 4.337070 1.303916 0.270291
v 4.284903 0.867470 -0.244702
v 4.277027 0.867470 0.270291
v 1.341486 -2.080053 0.805922
v 1.683173 -2.694408 -0.825011
v 0.000000 -2.388196 0.737746
v 0.000000 -2.996044 -0.891748
v 1.720224 -5.254235 0.504714
v 1.764526 -5.270163 -0.310560
v 1.011731 -5.416978 0.468707
v 1.011731 -5.432906 -0.346567
v 2.726796 1.654221 -0.419998
v 2.841430 0.883536 -0.598870
v 2.827524 0.883536 0.610306
v 2.726796 1.654221 0.431434
v 1.702815 -6.955660 0.548850
v 1.748195 -6.968184 -0.266424
v 1.008687 -7.171610 0.512843
v 1.009894 -7.187492 -0.302431
v 1.704740 -7.883204 0.567072
v 1.743676 -7.909666 -0.248202
v 0.978042 -7.864292 0.531066
v 0.974074 -7.879716 -0.284209
v 0.630968 1.842421 -0.449712
v 0.650231 -1.838903 0.773120
v 0.625605 -1.842421 -0.773120
v 0.630968 1.842421 0.449712
v 0.547648 -0.365815 0.773120
v 0.565238 -0.365815 -0.717387
v 0.657629 0.959717 0.773120
v 0.664485 0.959717 -0.773120
v 0.598848 -2.250639 0.768180
v 0.751379 -2.861392 -0.861956
v 1.328007 -5.344329 0.484781
v 1.347783 -5.360257 -0.330494
v 1.318550 -7.075209 0.528917
v 1.339476 -7.089592 -0.286358
v 1.302445 -7.872734 0.547139
v 1.317629 -7.893086 -0.268135
v 0.478248 2.523300 0.232014
v 0.000000 2.523300 0.232014
v 0.000000 2.523300 -0.232014
v 0.478248 2.523300 -0.232014
v 0.478248 2.665588 0.232014
v 0.000000 2.665588 0.232014
v 0.000000 2.665588 -0.232014
v 0.478248 2.665588 -0.232014
v 0.762095 3.218939 0.559819
v 0.000000 3.070561 0.678844
v 0.000000 3.070561 -0.678844
v 0.938770 3.070561 -0.473705
v 0.970681 4.469593 0.467936
v 0.000000 4.466738 0.724701
v 0.000000 4.385795 -0.843054
v 0.926804 4.385795 -0.488828
v 0.879073 4.641867 0.477761
v 0.000000 4.641867 0.477761
v 0.000000 4.598146 -0.697073
v 0.867033 4.598146 -0.539669
v 0.811173 4.746870 0.407251
v 0.000000 4.746870 0.407251
v 0.000000 4.746870 -0.364595
v 0.811173 4.746870 -0.364595
v 0.000000 3.723280 -0.783408
v 0.926730 3.723280 -0.578269
v 0.938770 3.767001 0.473705
v 0.000000 3.767001 0.806471
v 0.000000 4.043190 -0.843054
v 0.926804 4.043190 -0.488828
v 0.938770 4.124133 0.367274
v 0.000000 4.124133 0.784523
v 0.706475 4.876831 0.307628
v 0.000000 4.876831 0.307628
v 0.000000 4.876831 -0.264973
v 0.706475 4.876831 -0.264973
v 0.396243 5.110909 0.087843
v 0.000000 5.110909 0.087843
v 0.000000 5.110909 -0.045188
v 0.396243 5.110909 -0.045188
v 0.249763 5.203475 0.022507
v 0.000000 5.203475 0.022507
v 0.000000 5.203475 -0.022507
v 0.249763 5.203475 -0.022507
v 0.249763 5.063124 0.022507
v 0.000000 5.063124 0.022507
v 0.000000 5.063124 -0.022507
v 0.249763 5.063124 -0.022507
v 0.000000 3.070561 0.935819
v 0.923956 4.453256 0.002625
v 0.994540 4.464828 0.287504
v 0.929212 4.146441 0.002625
v 0.936794 4.142027 0.367274
v 1.430375 -1.838285 0.038338
v 1.413439 1.842421 0.022301
v 1.245517 -0.396353 0.038338
v 1.480460 0.920454 0.038338
v 4.337070 1.303916 0.025563
v 4.280770 0.867470 0.025563
v 1.503857 -2.371998 0.030894
v 0.000000 -2.677049 -0.036599
v 1.741276 -5.261804 0.117291
v 1.011731 -5.424547 0.081284
v 2.726796 1.654221 0.026829
v 2.834132 0.883536 0.035699
v 1.724380 -6.961611 0.161427
v 1.009260 -7.179157 0.125420
v 1.723243 -7.895779 0.179650
v 0.976156 -7.871623 0.143643
v 1.309660 -7.882406 0.159717
v 0.630968 1.842421 0.022301
v 0.478248 2.523300 0.011505
v 0.478248 2.665588 0.011505
v 0.938770 3.070561 0.023491
v 0.970681 4.469593 0.199968
v 0.879073 4.641867 0.043962
v 0.811173 4.746870 0.040465
v 0.938770 3.767001 0.023491
v 0.938770 4.124133 0.038483
v 0.706475 4.876831 0.035525
v 0.396243 5.110909 0.024626
v 0.249763 5.203475 0.001116
v 0.000000 5.063124 0.001116
v 0.249763 5.063124 0.001116
v 1.002976 4.466003 0.262156
v 0.954297 4.146441 0.138390
v 4.238073 0.869347 0.254941
v 4.319057 1.313289 0.253386
v 4.238073 0.869347 -0.254941
v 4.319057 1.313289 -0.246342
v 5.147399 0.768276 0.264454
v 5.217175 1.139986 0.264454
v 5.147399 0.768276 -0.264454
v 5.217175 1.216890 -0.264454
v 4.289541 1.101872 0.362014
v 4.289541 1.101872 -0.357518
v 5.175246 0.998718 -0.393297
v 5.175246 0.921814 0.392507
v 4.679157 0.820321 -0.259555
v 4.754704 1.266529 -0.255128
v 4.679157 0.820321 0.259555
v 4.754704 1.266529 0.258755
v 4.719167 1.051835 0.376805
v 4.719167 1.051835 -0.374873
v 5.221283 1.198353 0.368407
v 5.179353 0.980181 0.496460
v 4.758812 1.324896 0.362707
v 4.723275 1.110202 0.480758
v 5.496279 1.094773 0.278812
v 5.454349 0.876601 0.406865
v 5.500386 1.153140 0.382764
v 5.458457 0.934968 0.510818
v 4.238073 0.869347 0.098066
v 4.319057 1.313289 0.099635
v 5.147399 0.768276 0.101725
v 5.217175 1.216890 0.101725
v 5.175246 0.998718 0.150739
v 4.289541 1.101872 0.140636
v 4.754704 1.266529 0.100649
v 4.679157 0.820321 0.099841
v 4.319057 1.313289 -0.044248
v 5.147399 0.768276 -0.050559
v 4.289541 1.101872 -0.066534
v 4.238073 0.869347 -0.048740
v 5.217175 1.216890 -0.050559
v 5.175246 0.998718 -0.075511
v 4.754704 1.266529 -0.047309
v 4.679157 0.820321 -0.049623
v 4.319057 1.313289 -0.127463
v 5.147399 0.768276 -0.138633
v 4.289541 1.101872 -0.186351
v 4.238073 0.869347 -0.133646
v 5.217175 1.216890 -0.138633
v 5.175246 0.998718 -0.206364
v 4.754704 1.266529 -0.132882
v 4.679157 0.820321 -0.136065
v 5.798140 1.058487 0.153646
v 5.798140 1.058487 0.249122
v 5.773539 0.930482 0.324253
v 5.773539 0.930482 0.182404
v 5.966279 1.019861 -0.012020
v 5.966279 1.019861 0.068830
v 5.944017 0.904030 -0.025268
v 5.944017 0.904030 0.094852
v 5.868472 1.060025 -0.132787
v 5.868472 1.060025 -0.069390
v 5.838291 0.902983 -0.181540
v 5.838291 0.902983 -0.087351
v 5.621372 1.097104 -0.259330
v 5.595050 0.960141 -0.340214
v 5.621372 1.097104 -0.180343
v 5.595050 0.960141 -0.222862
v -4.223029 0.869347 0.254941
v -4.304012 1.313289 0.253386
v -4.223029 0.869347 -0.254941
v -4.304012 1.313289 -0.246342
v -5.132355 0.768276 0.264454
v -5.202131 1.139986 0.264454
v -5.132355 0.768276 -0.264454
v -5.202131 1.216890 -0.264454
v -4.274497 1.101872 0.362014
v -4.274497 1.101872 -0.357518
v -5.160202 0.998718 -0.393297
v -5.160202 0.921814 0.392507
v -4.664113 0.820321 -0.259555
v -4.739660 1.266529 -0.255128
v -4.664113 0.820321 0.259555
v -4.739660 1.266529 0.258755
v -4.704123 1.051835 0.376805
v -4.704123 1.051835 -0.374873
v -5.206238 1.198353 0.368407
v -5.164309 0.980181 0.496460
v -4.743768 1.324896 0.362707
v -4.708230 1.110202 0.480758
v -5.481234 1.094773 0.278812
v -5.439304 0.876601 0.406865
v -5.485342 1.153140 0.382764
v -5.443412 0.934968 0.510818
v -4.223029 0.869347 0.098066
v -4.304012 1.313289 0.099635
v -5.132355 0.768276 0.101725
v -5.202131 1.216890 0.101725
v -5.160202 0.998718 0.150739
v -4.274497 1.101872 0.140636
v -4.739660 1.266529 0.100649
v -4.664113 0.820321 0.099841
v -4.304012 1.313289 -0.044248
v -5.132355 0.768276 -0.050559
v -4.274497 1.101872 -0.066534
v -4.223029 0.869347 -0.048740
v -5.202131 1.216890 -0.050559
v -5.160202 0.998718 -0.075511
v -4.739660 1.266529 -0.047309
v -4.664113 0.820321 -0.049623
v -4.304012 1.313289 -0.127463
v -5.132355 0.768276 -0.138633
v -4.274497 1.101872 -0.186351
v -4.223029 0.869347 -0.133646
v -5.202131 1.216890 -0.138633
v -5.160202 0.998718 -0.206364
v -4.739660 1.266529 -0.132882
v -4.664113 0.820321 -0.136065
v -5.783095 1.058487 0.153646
v -5.783095 1.058487 0.249122
v -5.758494 0.930482 0.324253
v -5.758494 0.930482 0.182404
v -5.951234 1.019861 -0.012020
v -5.951234 1.019861 0.068830
v -5.928973 0.904030 -0.025268
v -5.928973 0.904030 0.094852
v -5.853427 1.060025 -0.132787
v -5.853427 1.060025 -0.069390
v -5.823246 0.902983 -0.181540
v -5.823246 0.902983 -0.087351
v -5.606328 1.097104 -0.259330
v -5.580005 0.960141 -0.340214
v -5.606328 1.097104 -0.180343
v -5.580005 0.960141 -0.222862
v 1.072114 3.055221 -0.446947
v 1.146877 3.693202 -0.603510
v 1.033436 3.099423 0.046767
v 1.117242 3.788601 -0.008369
v -1.751889 -8.535280 0.533756
v -1.751889 -7.831912 0.533756
v -1.751889 -8.535280 -0.122817
v -1.751889 -7.831912 -0.259228
v -0.958905 -8.535280 0.533756
v -0.958905 -7.831912 0.533756
v -0.958905 -8.535280 -0.343177
v -0.958905 -7.831912 -0.259228
v -1.751889 -8.163689 0.533756
v -1.751889 -8.163689 -0.259228
v -0.958905 -8.163689 -0.259228
v -0.958905 -8.163689 0.533756
v -0.945653 -8.215857 1.123467
v -0.958905 -8.535280 1.197035
v -1.751889 -8.535280 1.197035
v -1.738637 -8.215857 1.123467
v -1.754981 -8.368162 -0.252137
v -0.961997 -8.368162 -0.252137
v -0.961997 -8.368162 0.540847
v -1.754981 -8.368162 0.540847
v -0.984130 -8.446406 1.306161
v -1.777114 -8.446406 1.306161
v -1.320329 -8.535280 -0.242742
v -1.320329 -7.831912 -0.259228
v -1.320329 -8.535280 0.533756
v -1.320329 -7.831912 0.533756
v -1.320329 -8.163689 0.533756
v -1.320329 -8.163689 -0.259228
v -1.320329 -8.535280 1.197035
v -1.257252 -8.249117 1.283077
v -1.295729 -8.479667 1.465772
v -1.323421 -8.368162 -0.252137
v 1.757454 -8.535280 0.533756
v 1.757454 -7.831912 0.533756
v 1.757454 -8.535280 -0.122817
v 1.757454 -7.831912 -0.259228
v 0.964470 -8.535280 0.533756
v 0.964470 -7.831912 0.533756
v 0.964470 -8.535280 -0.343177
v 0.964470 -7.831912 -0.259228
v 1.757454 -8.163689 0.533756
v 1.757454 -8.163689 -0.259228
v 0.964470 -8.163689 -0.259228
v 0.964470 -8.163689 0.533756
v 0.951219 -8.215857 1.123467
v 0.964470 -8.535280 1.197035
v 1.757454 -8.535280 1.197035
v 1.744203 -8.215857 1.123467
v 1.760546 -8.368162 -0.252137
v 0.967562 -8.368162 -0.252137
v 0.967562 -8.368162 0.540847
v 1.760546 -8.368162 0.540847
v 0.989696 -8.446406 1.306161
v 1.782680 -8.446406 1.306161
v 1.325895 -8.535280 -0.242742
v 1.325895 -7.831912 -0.259228
v 1.325895 -8.535280 0.533756
v 1.325895 -7.831912 0.533756
v 1.325895 -8.163689 0.533756
v 1.325895 -8.163689 -0.259228
v 1.325895 -8.535280 1.197035
v 1.262818 -8.249117 1.283077
v 1.301295 -8.479667 1.465772
v 1.328987 -8.368162 -0.252137
v -1.456589 -1.834540 0.773120
v -1.413439 1.842421 0.449712
v -1.401425 -1.842421 -0.773120
v -1.413439 1.842421 -0.449712
v -1.266195 -0.396353 -0.773120
v -1.226792 -0.396353 0.773120
v -1.488519 0.920454 -0.773120
v -1.473162 0.920454 0.773120
v -4.337070 1.303916 -0.244702
v -4.337070 1.303916 0.270291
v -4.284903 0.867470 -0.244702
v -4.277027 0.867470 0.270291
v -1.341486 -2.080053 0.805922
v -1.683173 -2.694408 -0.825011
v -1.720224 -5.254235 0.504714
v -1.764526 -5.270163 -0.310560
v -1.011731 -5.416978 0.468707
v -1.011731 -5.432906 -0.346567
v -2.726796 1.654221 -0.419998
v -2.841430 0.883536 -0.598870
v -2.827524 0.883536 0.610306
v -2.726796 1.654221 0.431434
v -1.702815 -6.955660 0.548850
v -1.748195 -6.968184 -0.266424
v -1.008687 -7.171610 0.512843
v -1.009894 -7.187492 -0.302431
v -1.704740 -7.883204 0.567072
v -1.743676 -7.909666 -0.248202
v -0.978042 -7.864292 0.531066
v -0.974074 -7.879716 -0.284209
v -0.630968 1.842421 -0.449712
v -0.650231 -1.838903 0.773120
v -0.625605 -1.842421 -0.773120
v -0.630968 1.842421 0.449712
v -0.547648 -0.365815 0.773120
v -0.565238 -0.365815 -0.717387
v -0.657629 0.959717 0.773120
v -0.664485 0.959717 -0.773120
v -0.598848 -2.250639 0.768180
v -0.751379 -2.861392 -0.861956
v -1.328007 -5.344329 0.484781
v -1.347783 -5.360257 -0.330494
v -1.318550 -7.075209 0.528917
v -1.339476 -7.089592 -0.286358
v -1.302445 -7.872734 0.547139
v -1.317629 -7.893086 -0.268135
v -0.478248 2.523300 0.232014
v -0.478248 2.523300 -0.232014
v -0.478248 2.665588 0.232014
v -0.478248 2.665588 -0.232014
v -0.762095 3.218939 0.559819
v -0.938770 3.070561 -0.473705
v -0.970681 4.469593 0.467936
v -0.926804 4.385795 -0.488828
v -0.879073 4.641867 0.477761
v -0.867033 4.598146 -0.539669
v -0.811173 4.746870 0.407251
v -0.811173 4.746870 -0.364595
v -0.926730 3.723280 -0.578269
v -0.938770 3.767001 0.473705
v -0.926804 4.043190 -0.488828
v -0.938770 4.124133 0.367274
v -0.706475 4.876831 0.307628
v -0.706475 4.876831 -0.264973
v -0.396243 5.110909 0.087843
v -0.396243 5.110909 -0.045188
v -0.249763 5.203475 0.022507
v -0.249763 5.203475 -0.022507
v -0.249763 5.063124 0.022507
v -0.249763 5.063124 -0.022507
v -0.923956 4.453256 0.002625
v -0.994540 4.464828 0.287504
v -0.929212 4.146441 0.002625
v -0.936794 4.142027 0.367274
v -1.430375 -1.838285 0.038338
v -1.413439 1.842421 0.022301
v -1.245517 -0.396353 0.038338
v -1.480460 0.920454 0.038338
v -4.337070 1.303916 0.025563
v -4.280770 0.867470 0.025563
v -1.503857 -2.371998 0.030894
v -1.741276 -5.261804 0.117291
v -1.011731 -5.424547 0.081284
v -2.726796 1.654221 0.026829
v -2.834132 0.883536 0.035699
v -1.724380 -6.961611 0.161427
v -1.009260 -7.179157 0.125420
v -1.723243 -7.895779 0.179650
v -0.976156 -7.871623 0.143643
v -1.309660 -7.882406 0.159717
v -0.630968 1.842421 0.022301
v -0.478248 2.523300 0.011505
v -0.478248 2.665588 0.011505
v -0.938770 3.070561 0.023491
v -0.970681 4.469593 0.199968
v -0.879073 4.641867 0.043962
v -0.811173 4.746870 0.040465
v -0.938770 3.767001 0.023491
v -0.938770 4.124133 0.038483
v -0.706475 4.876831 0.035525
v -0.396243 5.110909 0.024626
v -0.249763 5.203475 0.001116
v -0.249763 5.063124 0.001116
v -1.002976 4.466003 0.262156
v -0.954297 4.146441 0.138390
v -4.238073 0.869347 0.254941
v -4.319057 1.313289 0.253386
v -4.238073 0.869347 -0.254941
v -4.319057 1.313289 -0.246342
v -5.147399 0.768276 0.264454
v -5.217175 1.139986 0.264454
v -5.147399 0.768276 -0.264454
v -5.217175 1.216890 -0.264454
v -4.289541 1.101872 0.362014
v -4.289541 1.101872 -0.357518
v -5.175246 0.998718 -0.393297
v -5.175246 0.921814 0.392507
v -4.679157 0.820321 -0.259555
v -4.754704 1.266529 -0.255128
v -4.679157 0.820321 0.259555
v -4.754704 1.266529 0.258755
v -4.719167 1.051835 0.376805
v -4.719167 1.051835 -0.374873
v -5.221283 1.198353 0.368407
v -5.179353 0.980181 0.496460
v -4.758812 1.324896 0.362707
v -4.723275 1.110202 0.480758
v -5.496279 1.094773 0.278812
v -5.454349 0.876601 0.406865
v -5.500386 1.153140 0.382764
v -5.458457 0.934968 0.510818
v -4.238073 0.869347 0.098066
v -4.319057 1.313289 0.099635
v -5.147399 0.768276 0.101725
v -5.217175 1.216890 0.101725
v -5.175246 0.998718 0.150739
v -4.289541 1.101872 0.140636
v -4.754704 1.266529 0.100649
v -4.679157 0.820321 0.099841
v -4.319057 1.313289 -0.044248
v -5.147399 0.768276 -0.050559
v -4.289541 1.101872 -0.066534
v -4.238073 0.869347 -0.048740
v -5.217175 1.216890 -0.050559
v -5.175246 0.998718 -0.075511
v -4.754704 1.266529 -0.047309
v -4.679157 0.820321 -0.049623
v -4.319057 1.313289 -0.127463
v -5.147399 0.768276 -0.138633
v -4.289541 1.101872 -0.186351
v -4.238073 0.869347 -0.133646
v -5.217175 1.216890 -0.138633
v -5.175246 0.998718 -0.206364
v -4.754704 1.266529 -0.132882
v -4.679157 0.820321 -0.136065
v -5.798140 1.058487 0.153646
v -5.798140 1.058487 0.249122
v -5.773539 0.930482 0.324253
v -5.773539 0.930482 0.182404
v -5.966279 1.019861 -0.012020
v -5.966279 1.019861 0.068830
v -5.944017 0.904030 -0.025268
v -5.944017 0.904030 0.094852
v -5.868472 1.060025 -0.132787
v -5.868472 1.060025 -0.069390
v -5.838291 0.902983 -0.181540
v -5.838291 0.902983 -0.087351
v -5.621372 1.097104 -0.259330
v -5.595050 0.960141 -0.340214
v -5.621372 1.097104 -0.180343
v -5.595050 0.960141 -0.222862
v 4.223029 0.869347 0.254941
v 4.304012 1.313289 0.253386
v 4.223029 0.869347 -0.254941
v 4.304012 1.313289 -0.246342
v 5.132355 0.768276 0.264454
v 5.202131 1.139986 0.264454
v 5.132355 0.768276 -0.264454
v 5.202131 1.216890 -0.264454
v 4.274497 1.101872 0.362014
v 4.274497 1.101872 -0.357518
v 5.160202 0.998718 -0.393297
v 5.160202 0.921814 0.392507
v 4.664113 0.820321 -0.259555
v 4.739660 1.266529 -0.255128
v 4.664113 0.820321 0.259555
v 4.739660 1.266529 0.258755
v 4.704123 1.051835 0.376805
v 4.704123 1.051835 -0.374873
v 5.206238 1.198353 0.368407
v 5.164309 0.980181 0.496460
v 4.743768 1.324896 0.362707
v 4.708230 1.110202 0.480758
v 5.481234 1.094773 0.278812
v 5.439304 0.876601 0.406865
v 5.485342 1.153140 0.382764
v 5.443412 0.934968 0.510818
v 4.223029 0.869347 0.098066
v 4.304012 1.313289 0.099635
v 5.132355 0.768276 0.101725
v 5.202131 1.216890 0.101725
v 5.160202 0.998718 0.150739
v 4.274497 1.101872 0.140636
v 4.739660 1.266529 0.100649
v 4.664113 0.820321 0.099841
v 4.304012 1.313289 -0.044248
v 5.132355 0.768276 -0.050559
v 4.274497 1.101872 -0.066534
v 4.223029 0.869347 -0.048740
v 5.202131 1.216890 -0.050559
v 5.160202 0.998718 -0.075511
v 4.739660 1.266529 -0.047309
v 4.664113 0.820321 -0.049623
v 4.304012 1.313289 -0.127463
v 5.132355 0.768276 -0.138633
v 4.274497 1.101872 -0.186351
v 4.223029 0.869347 -0.133646
v 5.202131 1.216890 -0.138633
v 5.160202 0.998718 -0.206364
v 4.739660 1.266529 -0.132882
v 4.664113 0.820321 -0.136065
v 5.783095 1.058487 0.153646
v 5.783095 1.058487 0.249122
v 5.758494 0.930482 0.324253
v 5.758494 0.930482 0.182404
v 5.951234 1.019861 -0.012020
v 5.951234 1.019861 0.068830
v 5.928973 0.904030 -0.025268
v 5.928973 0.904030 0.094852
v 5.853427 1.060025 -0.132787
v 5.853427 1.060025 -0.069390
v 5.823246 0.902983 -0.181540
v 5.823246 0.902983 -0.087351
v 5.606328 1.097104 -0.259330
v 5.580005 0.960141 -0.340214
v 5.606328 1.097104 -0.180343
v 5.580005 0.960141 -0.222862
v -1.072114 3.055221 -0.446947
v -1.146877 3.693202 -0.603510
v -1.033436 3.099423 0.046767
v -1.117242 3.788601 -0.008369
v 1.751889 -8.535280 0.533756
v 1.751889 -7.831912 0.533756
v 1.751889 -8.535280 -0.122817
v 1.751889 -7.831912 -0.259228
v 0.958905 -8.535280 0.533756
v 0.958905 -7.831912 0.533756
v 0.958905 -8.535280 -0.343177
v 0.958905 -7.831912 -0.259228
v 1.751889 -8.163689 0.533756
v 1.751889 -8.163689 -0.259228
v 0.958905 -8.163689 -0.259228
v 0.958905 -8.163689 0.533756
v 0.945653 -8.215857 1.123467
v 0.958905 -8.535280 1.197035
v 1.751889 -8.535280 1.197035
v 1.738637 -8.215857 1.123467
v 1.754981 -8.368162 -0.252137
v 0.961997 -8.368162 -0.252137
v 0.961997 -8.368162 0.540847
v 1.754981 -8.368162 0.540847
v 0.984130 -8.446406 1.306161
v 1.777114 -8.446406 1.306161
v 1.320329 -8.535280 -0.242742
v 1.320329 -7.831912 -0.259228
v 1.320329 -8.535280 0.533756
v 1.320329 -7.831912 0.533756
v 1.320329 -8.163689 0.533756
v 1.320329 -8.163689 -0.259228
v 1.320329 -8.535280 1.197035
v 1.257252 -8.249117 1.283077
v 1.295729 -8.479667 1.465772
v 1.323421 -8.368162 -0.252137
v -1.757454 -8.535280 0.533756
v -1.757454 -7.831912 0.533756
v -1.757454 -8.535280 -0.122817
v -1.757454 -7.831912 -0.259228
v -0.964470 -8.535280 0.533756
v -0.964470 -7.831912 0.533756
v -0.964470 -8.535280 -0.343177
v -0.964470 -7.831912 -0.259228
v -1.757454 -8.163689 0.533756
v -1.757454 -8.163689 -0.259228
v -0.964470 -8.163689 -0.259228
v -0.964470 -8.163689 0.533756
v -0.951219 -8.215857 1.123467
v -0.964470 -8.535280 1.197035
v -1.757454 -8.535280 1.197035
v -1.744203 -8.215857 1.123467
v -1.760546 -8.368162 -0.252137
v -0.967562 -8.368162 -0.252137
v -0.967562 -8.368162 0.540847
v -1.760546 -8.368162 0.540847
v -0.989696 -8.446406 1.306161
v -1.782680 -8.446406 1.306161
v -1.325895 -8.535280 -0.242742
v -1.325895 -7.831912 -0.259228
v -1.325895 -8.535280 0.533756
v -1.325895 -7.831912 0.533756
v -1.325895 -8.163689 0.533756
v -1.325895 -8.163689 -0.259228
v -1.325895 -8.535280 1.197035
v -1.262818 -8.249117 1.283077
v -1.301295 -8.479667 1.465772
v -1.328987 -8.368162 -0.252137
vn 0.0083 0.3378 -0.9412
vn 0.1867 0.1534 -0.9704
vn 0.0139 0.0780 -0.9969
vn 0.9758 0.2189 -0.0000
vn 0.0086 0.3496 0.9368
vn -0.0000 -0.0000 1.0000
vn 0.9898 0.1425 -0.0054
vn -0.0374 0.0166 -0.9992
vn 0.9836 -0.1798 0.0174
vn -0.0373 -0.0165 -0.9992
vn 0.9912 -0.1321 0.0076
vn -0.0111 -0.9999 -0.0001
vn 0.1773 0.1501 0.9726
vn 0.2126 0.9771 -0.0000
vn 0.0777 -0.1913 -0.9785
vn 0.9938 -0.0498 0.0994
vn -0.0197 -0.0410 0.9990
vn -1.0000 0.0012 -0.0008
vn 0.9868 0.0956 0.1311
vn -0.9316 -0.3521 0.0898
vn -0.0281 -0.0978 0.9948
vn 0.1418 0.9899 -0.0000
vn 0.0892 0.2911 0.9525
vn -0.0273 -0.9996 -0.0003
vn 0.0975 0.2932 -0.9511
vn 0.9987 0.0014 0.0516
vn -0.0581 0.0255 0.9980
vn 0.0549 -0.0261 -0.9982
vn 0.9984 -0.0086 0.0551
vn -0.0306 -0.9992 0.0277
vn -0.9988 0.0497 0.0007
vn -0.0542 0.0261 0.9982
vn 0.0504 -0.0216 -0.9985
vn 0.0510 -0.0263 -0.9984
vn -0.0536 0.0215 0.9983
vn -0.0303 -0.9993 0.0217
vn 0.0547 -0.0255 -0.9982
vn -0.0583 0.0261 0.9980
vn -0.0300 0.0499 0.9983
vn 0.0772 -0.1884 -0.9791
vn -0.0391 -0.0572 -0.9976
vn -0.0366 0.0517 -0.9980
vn 0.0083 0.3377 0.9412
vn -0.0000 1.0000 -0.0000
vn 0.0122 0.0958 -0.9953
vn 0.0085 0.3497 -0.9368
vn -0.0000 -0.0000 -1.0000
vn -0.0000 0.3045 0.9525
vn -0.0000 0.3045 -0.9525
vn 0.6604 -0.7509 -0.0000
vn 1.0000 -0.0000 -0.0000
vn 0.1650 0.9862 0.0087
vn 0.1053 -0.6782 -0.7273
vn 0.1492 -0.6479 0.7469
vn 0.1111 0.5801 0.8070
vn 0.3570 -0.0000 -0.9341
vn 0.3321 -0.0712 0.9405
vn 0.0470 0.8641 -0.5012
vn 0.9409 0.3303 -0.0745
vn 0.2658 0.2462 -0.9320
vn -0.0000 0.6084 -0.7936
vn -0.0000 0.5575 0.8302
vn 0.8899 0.4550 -0.0310
vn 0.2617 -0.0693 0.9626
vn 0.2123 -0.1527 -0.9652
vn 0.0243 0.0383 0.9990
vn 0.3659 0.1646 0.9160
vn 0.2886 0.0445 -0.9564
vn 0.9998 0.0032 -0.0216
vn 0.6023 0.7983 -0.0000
vn -0.0000 0.6084 0.7936
vn 0.7787 0.6274 -0.0000
vn 0.5342 0.8454 -0.0000
vn -0.0000 0.6845 -0.7290
vn -0.0000 0.6845 0.7290
vn -0.0000 0.5767 0.8170
vn -0.0000 0.2380 -0.9713
vn -1.0000 -0.0000 -0.0000
vn 0.9670 -0.0168 -0.2541
vn 0.9586 0.2713 -0.0867
vn 0.9847 -0.1355 0.1096
vn 1.0000 0.0081 -0.0010
vn 0.9259 -0.3769 0.0261
vn 0.9809 -0.1691 0.0964
vn 0.9732 -0.1248 0.1931
vn 0.8397 0.5430 -0.0000
vn 0.8829 0.4695 -0.0000
vn -0.1734 -0.9773 0.1220
vn 0.7027 -0.6491 0.2913
vn -0.0367 -0.9991 0.0217
vn -0.9989 0.0460 0.0008
vn -0.0369 -0.9989 0.0275
vn 0.9984 -0.0083 0.0551
vn 0.9987 -0.0020 0.0517
vn -0.9397 -0.3314 0.0846
vn 0.9879 0.0727 0.1371
vn -1.0000 0.0016 -0.0008
vn 0.9683 0.2466 0.0390
vn 0.9923 -0.1233 0.0076
vn 0.9851 -0.1710 0.0174
vn 0.9939 0.1102 -0.0053
vn -0.9904 0.1383 -0.0000
vn 0.0290 0.4939 -0.8690
vn 0.1856 0.9417 0.2805
vn 0.0315 0.4657 0.8844
vn -0.1105 -0.9939 -0.0000
vn 0.1067 0.9943 -0.0000
vn -0.0683 -0.4233 0.9034
vn 0.9909 -0.1321 -0.0251
vn -0.0744 -0.4574 -0.8861
vn -0.9764 0.2161 -0.0000
vn -0.0699 -0.4127 -0.9082
vn -0.1209 -0.5181 0.8467
vn 0.1805 0.9565 0.2293
vn 0.2367 0.8432 -0.4828
vn 0.0263 0.4732 -0.8806
vn 0.1126 0.4758 0.8723
vn -0.9891 0.1415 -0.0404
vn 0.0366 0.5006 0.8649
vn -0.2556 -0.8386 0.4810
vn 0.9859 -0.1597 0.0507
vn -0.1640 -0.8574 0.4879
vn -0.0366 -0.5006 -0.8649
vn 0.1640 0.8574 -0.4879
vn 0.9928 -0.1200 -0.0000
vn -0.1222 -0.9925 -0.0000
vn -0.1429 -0.9897 -0.0000
vn 0.1533 0.4805 -0.8635
vn 0.9820 -0.1887 -0.0000
vn -0.0547 -0.9790 -0.1963
vn 0.0917 0.4909 0.8664
vn 0.0260 -0.2239 -0.9743
vn 0.0770 0.0987 -0.9921
vn 0.2544 0.9671 -0.0000
vn 0.0956 0.2007 0.9750
vn 0.0013 -0.1139 0.9935
vn 0.2342 0.9722 -0.0000
vn 0.0765 0.2822 -0.9563
vn -0.0915 -0.9958 -0.0000
vn 0.2841 0.9588 -0.0000
vn 0.0101 -0.2982 0.9544
vn -0.9904 -0.1383 -0.0000
vn 0.0290 -0.4939 0.8690
vn 0.1856 -0.9417 -0.2805
vn 0.0315 -0.4657 -0.8844
vn -0.1105 0.9939 -0.0000
vn 0.1067 -0.9943 -0.0000
vn -0.0683 0.4233 -0.9034
vn 0.9909 0.1321 0.0251
vn -0.0744 0.4574 0.8861
vn -0.9764 -0.2161 -0.0000
vn -0.0699 0.4127 0.9082
vn -0.1209 0.5181 -0.8467
vn 0.1805 -0.9565 -0.2293
vn 0.2367 -0.8432 0.4828
vn 0.0263 -0.4732 0.8806
vn 0.1126 -0.4758 -0.8723
vn -0.9891 -0.1415 0.0404
vn 0.0366 -0.5006 -0.8649
vn -0.2556 0.8386 -0.4810
vn 0.9859 0.1597 -0.0507
vn -0.1640 0.8574 -0.4879
vn -0.0366 0.5006 0.8649
vn 0.1640 -0.8574 0.4879
vn 0.9928 0.1200 -0.0000
vn -0.1222 0.9925 -0.0000
vn -0.1429 0.9897 -0.0000
vn 0.1533 -0.4805 0.8635
vn 0.9820 0.1887 -0.0000
vn -0.0547 0.9790 0.1963
vn 0.0917 -0.4909 -0.8664
vn 0.0260 0.2239 0.9743
vn 0.0770 -0.0987 0.9921
vn 0.2544 -0.9671 -0.0000
vn 0.0956 -0.2007 -0.9750
vn 0.0013 0.1139 -0.9935
vn 0.2342 -0.9722 -0.0000
vn 0.0765 -0.2822 0.9563
vn -0.0915 0.9958 -0.0000
vn 0.2841 -0.9588 -0.0000
vn 0.0101 0.2982 -0.9544
vn 0.9914 -0.1064 0.0758
vn -0.0211 -0.1973 -0.9801
vn 0.0046 0.9933 -0.1154
vn 0.0490 -0.9977 0.0464
vn -0.0000 -1.0000 -0.0000
vn -0.9947 -0.1005 -0.0209
vn 0.9999 -0.0151 -0.0000
vn -0.0000 -0.0347 -0.9994
vn -0.9999 0.0151 -0.0000
vn -0.2053 0.6287 0.7501
vn 0.9953 -0.0963 -0.0027
vn 0.0186 0.9947 0.1012
vn 0.9947 0.1005 0.0209
vn -0.0960 -0.9298 0.3554
vn -0.9998 -0.0185 -0.0000
vn -0.1338 0.2328 -0.9633
vn 0.9998 0.0185 -0.0000
vn -0.9953 0.0963 0.0027
vn -0.1272 -0.3822 -0.9153
vn 0.1298 -0.9261 0.3543
vn -0.0246 0.9943 0.1036
vn 0.3332 0.5508 0.7652
vn -0.9947 0.1005 0.0209
vn 0.9999 0.0151 -0.0000
vn -0.0000 0.0347 0.9994
vn -0.9999 -0.0151 -0.0000
vn -0.2053 -0.6287 -0.7501
vn 0.9953 0.0963 0.0027
vn 0.0186 -0.9947 -0.1012
vn 0.9947 -0.1005 -0.0209
vn -0.0960 0.9298 -0.3554
vn -0.9998 0.0185 -0.0000
vn -0.1338 -0.2328 0.9633
vn 0.9998 -0.0185 -0.0000
vn -0.9953 -0.0963 -0.0027
vn -0.1272 0.3822 0.9153
vn 0.1298 0.9261 -0.3543
vn -0.0246 -0.9943 -0.1036
vn 0.3332 -0.5508 -0.7652
vn -0.0083 0.3378 -0.9412
vn -0.1867 0.1534 -0.9704
vn -0.0139 0.0780 -0.9969
vn -0.9758 0.2189 -0.0000
vn -0.0086 0.3496 0.9368
vn -0.9898 0.1425 -0.0054
vn 0.0374 0.0166 -0.9992
vn -0.9836 -0.1798 0.0174
vn 0.0373 -0.0165 -0.9992
vn -0.9912 -0.1321 0.0076
vn 0.0111 -0.9999 -0.0001
vn -0.1773 0.1501 0.9726
vn -0.2126 0.9771 -0.0000
vn -0.0777 -0.1913 -0.9785
vn -0.9938 -0.0498 0.0994
vn 0.0197 -0.0410 0.9990
vn 1.0000 0.0012 -0.0008
vn -0.9868 0.0956 0.1311
vn 0.9316 -0.3521 0.0898
vn 0.0281 -0.0978 0.9948
vn -0.1418 0.9899 -0.0000
vn -0.0892 0.2911 0.9525
vn 0.0273 -0.9996 -0.0003
vn -0.0975 0.2932 -0.9511
vn -0.9987 0.0014 0.0516
vn 0.0581 0.0255 0.9980
vn -0.0549 -0.0261 -0.9982
vn -0.9984 -0.0086 0.0551
vn 0.0305 -0.9992 0.0277
vn 0.9988 0.0497 0.0007
vn 0.0542 0.0261 0.9982
vn -0.0504 -0.0216 -0.9985
vn -0.0510 -0.0263 -0.9984
vn 0.0536 0.0215 0.9983
vn 0.0303 -0.9993 0.0217
vn -0.0547 -0.0255 -0.9982
vn 0.0583 0.0261 0.9980
vn 0.0300 0.0499 0.9983
vn -0.0772 -0.1884 -0.9791
vn 0.0391 -0.0572 -0.9976
vn 0.0366 0.0517 -0.9980
vn -0.0083 0.3377 0.9412
vn -0.0122 0.0958 -0.9953
vn -0.0085 0.3497 -0.9368
vn -0.6604 -0.7509 -0.0000
vn -0.1650 0.9862 0.0087
vn -0.1053 -0.6782 -0.7273
vn -0.1492 -0.6479 0.7469
vn -0.1111 0.5801 0.8070
vn -0.3570 -0.0000 -0.9341
vn -0.3321 -0.0712 0.9405
vn -0.0470 0.8641 -0.5012
vn -0.9409 0.3303 -0.0745
vn -0.2658 0.2462 -0.9320
vn -0.8899 0.4550 -0.0310
vn -0.2617 -0.0693 0.9626
vn -0.2123 -0.1527 -0.9652
vn -0.0243 0.0383 0.9990
vn -0.3659 0.1646 0.9160
vn -0.2886 0.0445 -0.9564
vn -0.9998 0.0032 -0.0216
vn -0.6023 0.7983 -0.0000
vn -0.7787 0.6274 -0.0000
vn -0.5342 0.8454 -0.0000
vn -0.9670 -0.0168 -0.2541
vn -0.9586 0.2713 -0.0867
vn -0.9847 -0.1355 0.1096
vn -1.0000 0.0081 -0.0010
vn -0.9259 -0.3769 0.0261
vn -0.9809 -0.1691 0.0964
vn -0.9732 -0.1248 0.1931
vn -0.8397 0.5430 -0.0000
vn -0.8829 0.4695 -0.0000
vn 0.1734 -0.9773 0.1220
vn -0.7027 -0.6491 0.2913
vn 0.0367 -0.9991 0.0217
vn 0.9989 0.0460 0.0008
vn 0.0369 -0.9989 0.0275
vn -0.9984 -0.0083 0.0551
vn -0.9987 -0.0020 0.0517
vn 0.9397 -0.3314 0.0846
vn -0.9879 0.0727 0.1371
vn 1.0000 0.0016 -0.0008
vn -0.9683 0.2466 0.0390
vn -0.9923 -0.1233 0.0076
vn -0.9851 -0.1710 0.0174
vn -0.9939 0.1102 -0.0053
vn 0.9904 0.1383 -0.0000
vn -0.0290 0.4939 -0.8690
vn -0.1856 0.9417 0.2805
vn -0.0315 0.4657 0.8844
vn 0.1105 -0.9939 -0.0000
vn -0.1067 0.9943 -0.0000
vn 0.0683 -0.4233 0.9034
vn -0.9909 -0.1321 -0.0251
vn 0.0744 -0.4574 -0.8861
vn 0.9764 0.2161 -0.0000
vn 0.0699 -0.4127 -0.9082
vn 0.1209 -0.5181 0.8467
vn -0.1805 0.9565 0.2293
vn -0.2367 0.8432 -0.4828
vn -0.0263 0.4732 -0.8806
vn -0.1126 0.4758 0.8723
vn 0.9891 0.1415 -0.0404
vn 0.2556 -0.8386 0.4810
vn -0.9859 -0.1597 0.0507
vn -0.9928 -0.1200 -0.0000
vn 0.1222 -0.9925 -0.0000
vn 0.1429 -0.9897 -0.0000
vn -0.1533 0.4805 -0.8635
vn -0.9820 -0.1887 -0.0000
vn 0.0547 -0.9790 -0.1963
vn -0.0917 0.4909 0.8664
vn -0.0260 -0.2239 -0.9743
vn -0.0770 0.0987 -0.9921
vn -0.2544 0.9671 -0.0000
vn -0.0956 0.2007 0.9750
vn -0.0013 -0.1139 0.9935
vn -0.2342 0.9722 -0.0000
vn -0.0765 0.2822 -0.9563
vn 0.0915 -0.9958 -0.0000
vn -0.2841 0.9588 -0.0000
vn -0.0101 -0.2982 0.9544
vn 0.9904 -0.1383 -0.0000
vn -0.0290 -0.4939 0.8690
vn -0.1856 -0.9417 -0.2805
vn -0.0315 -0.4657 -0.8844
vn 0.1105 0.9939 -0.0000
vn -0.1067 -0.9943 -0.0000
vn 0.0683 0.4233 -0.9034
vn -0.9909 0.1321 0.0251
vn 0.0744 0.4574 0.8861
vn 0.9764 -0.2161 -0.0000
vn 0.0699 0.4127 0.9082
vn 0.1209 0.5181 -0.8467
vn -0.1805 -0.9565 -0.2293
vn -0.2367 -0.8432 0.4828
vn -0.0263 -0.4732 0.8806
vn -0.1126 -0.4758 -0.8723
vn 0.9891 -0.1415 0.0404
vn 0.2556 0.8386 -0.4810
vn -0.9859 0.1597 -0.0507
vn -0.9928 0.1200 -0.0000
vn 0.1222 0.9925 -0.0000
vn 0.1429 0.9897 -0.0000
vn -0.1533 -0.4805 0.8635
vn -0.9820 0.1887 -0.0000
vn 0.0547 0.9790 0.1963
vn -0.0917 -0.4909 -0.8664
vn -0.0260 0.2239 0.9743
vn -0.0770 -0.0987 0.9921
vn -0.2544 -0.9671 -0.0000
vn -0.0956 -0.2007 -0.9750
vn -0.0013 0.1139 -0.9935
vn -0.2342 -0.9722 -0.0000
vn -0.0765 -0.2822 0.9563
vn 0.0915 0.9958 -0.0000
vn -0.2841 -0.9588 -0.0000
vn -0.0101 0.2982 -0.9544
vn -0.9914 -0.1064 0.0758
vn 0.0211 -0.1973 -0.9801
vn -0.0046 0.9933 -0.1154
vn -0.0490 -0.9977 0.0464
vn 0.2053 0.6287 0.7501
vn -0.0186 0.9947 0.1012
vn 0.0960 -0.9298 0.3554
vn 0.1338 0.2328 -0.9633
vn 0.1272 -0.3822 -0.9153
vn -0.1298 -0.9261 0.3543
vn 0.0246 0.9943 0.1036
vn -0.3332 0.5508 0.7652
vn 0.2053 -0.6287 -0.7501
vn -0.0186 -0.9947 -0.1012
vn 0.0960 0.9298 -0.3554
vn 0.1338 -0.2328 0.9633
vn 0.1272 0.3822 0.9153
vn -0.1298 0.9261 -0.3543
vn 0.0246 -0.9943 -0.1036
vn -0.3332 -0.5508 -0.7652
vt 0.252086 0.410197
vt 0.250784 0.342125
vt 0.286612 0.378862
vt 0.291089 0.449938
vt 0.251787 0.558522
vt 0.248863 0.537043
vt 0.293695 0.546674
vt 0.292255 0.558768
vt 0.261791 0.603236
vt 0.291084 0.607940
vt 0.296482 0.641887
vt 0.260217 0.642573
vt 0.828096 0.655933
vt 0.792066 0.653825
vt 0.811812 0.602588
vt 0.830400 0.603675
vt 0.304994 0.523647
vt 0.306392 0.456520
vt 0.354625 0.456504
vt 0.355263 0.521209
vt 0.282923 0.537613
vt 0.290686 0.424983
vt 0.332549 0.423086
vt 0.332628 0.537865
vt 0.437940 0.712504
vt 0.437222 0.660523
vt 0.463647 0.660124
vt 0.464353 0.712005
vt 0.356917 0.529431
vt 0.352490 0.416448
vt 0.405796 0.418933
vt 0.416161 0.529484
vt 0.282208 0.323640
vt 0.332478 0.321202
vt 0.436469 0.613367
vt 0.462891 0.612977
vt 0.276046 0.497178
vt 0.397221 0.353375
vt 0.946514 0.150778
vt 0.913241 0.150802
vt 0.913248 0.132090
vt 0.946514 0.132064
vt 0.308830 0.426010
vt 0.270186 0.425949
vt 0.290844 0.337893
vt 0.307303 0.337982
vt 0.366514 0.397573
vt 0.359183 0.456299
vt 0.247756 0.457947
vt 0.243143 0.424579
vt 0.923897 0.576227
vt 0.954819 0.576325
vt 0.941654 0.701467
vt 0.922950 0.701408
vt 0.848734 0.124232
vt 0.884999 0.123546
vt 0.873641 0.221107
vt 0.857322 0.221999
vt 0.437940 0.616493
vt 0.464353 0.615994
vt 0.465690 0.624713
vt 0.437937 0.635741
vt 0.332593 0.579633
vt 0.286863 0.569097
vt 0.831712 0.234587
vt 0.864382 0.236438
vt 0.856040 0.370378
vt 0.823371 0.368528
vt 0.731434 0.048402
vt 0.790443 0.024954
vt 0.770792 0.268548
vt 0.741170 0.269593
vt 0.848794 0.024266
vt 0.913234 0.051065
vt 0.231014 0.287569
vt 0.237053 0.263237
vt 0.356748 0.253419
vt 0.358980 0.266434
vt 0.924007 0.474868
vt 0.956673 0.474971
vt 0.423799 0.451478
vt 0.411838 0.521607
vt 0.316048 0.524648
vt 0.323379 0.465922
vt 0.309855 0.508350
vt 0.260441 0.508350
vt 0.387026 0.393284
vt 0.395091 0.452534
vt 0.736896 0.399448
vt 0.766520 0.398526
vt 0.768956 0.456650
vt 0.739340 0.458073
vt 0.422582 0.225643
vt 0.423820 0.238792
vt 0.862893 0.285174
vt 0.846688 0.287298
vt 0.816146 0.833973
vt 0.784524 0.833927
vt 0.784545 0.804261
vt 0.815312 0.804350
vt 0.852697 0.423193
vt 0.820027 0.421364
vt 0.448107 0.213571
vt 0.453513 0.225615
vt 0.857091 0.320728
vt 0.841063 0.317530
vt 0.833620 0.289010
vt 0.828138 0.314951
vt 0.425355 0.255097
vt 0.460216 0.240551
vt 0.841646 0.834011
vt 0.840121 0.804421
vt 0.844163 0.222717
vt 0.361747 0.282575
vt 0.692601 0.165391
vt 0.690702 0.154312
vt 0.737091 0.146650
vt 0.714171 0.189184
vt 0.221282 0.537301
vt 0.230154 0.556032
vt 0.814189 0.117468
vt 0.309504 0.414444
vt 0.281575 0.459601
vt 0.232743 0.426331
vt 0.211831 0.326663
vt 0.309144 0.529387
vt 0.300442 0.493758
vt 0.312403 0.423628
vt 0.372217 0.423608
vt 0.370819 0.490735
vt 0.911248 0.482843
vt 0.911248 0.423307
vt 0.943914 0.423410
vt 0.943914 0.482946
vt 0.238171 0.599444
vt 0.225672 0.635809
vt 0.282031 0.435802
vt 0.275574 0.472501
vt 0.371616 0.158016
vt 0.335096 0.157983
vt 0.335092 0.147106
vt 0.371613 0.147139
vt 0.331839 0.256496
vt 0.283606 0.256513
vt 0.294845 0.204695
vt 0.331404 0.204683
vt 0.282337 0.416789
vt 0.271653 0.453483
vt 0.831026 0.834535
vt 0.831026 0.853155
vt 0.795009 0.871314
vt 0.795009 0.833298
vt 0.722591 0.736543
vt 0.759141 0.737334
vt 0.758910 0.748211
vt 0.722359 0.747419
vt 0.812445 0.591729
vt 0.831034 0.592816
vt 0.717974 0.876065
vt 0.717974 0.850937
vt 0.734952 0.850926
vt 0.737627 0.858117
vt 0.333313 0.116969
vt 0.405812 0.116657
vt 0.779092 0.791333
vt 0.720869 0.778858
vt 0.718846 0.885436
vt 0.790920 0.886798
vt 0.785867 0.900206
vt 0.718684 0.898750
vt 0.695992 0.941282
vt 0.664020 0.941541
vt 0.664016 0.929940
vt 0.695988 0.929680
vt 0.718957 0.859507
vt 0.791478 0.860610
vt 0.843329 0.866688
vt 0.843329 0.799594
vt 0.868871 0.803182
vt 0.857805 0.863901
vt 0.839230 0.969777
vt 0.798626 0.973580
vt 0.795729 0.957051
vt 0.840466 0.956340
vt 0.664269 0.922631
vt 0.693874 0.922529
vt 0.889311 0.927917
vt 0.889311 0.865974
vt 0.899429 0.866356
vt 0.899429 0.920304
vt 0.780638 0.908043
vt 0.718644 0.906701
vt 0.809790 0.946392
vt 0.840709 0.948201
vt 0.791862 0.833426
vt 0.719258 0.832371
vt 0.696434 0.974205
vt 0.664319 0.974343
vt 0.664128 0.952326
vt 0.695836 0.952187
vt 0.792838 0.905980
vt 0.791386 0.930868
vt 0.850918 0.954532
vt 0.804797 0.955162
vt 0.813049 0.931147
vt 0.853653 0.927344
vt 0.944012 0.951310
vt 0.944012 0.963192
vt 0.930879 0.954249
vt 0.930879 0.951489
vt 0.649021 0.943411
vt 0.711015 0.944754
vt 0.702987 0.954407
vt 0.648995 0.953237
vt 0.965098 0.957428
vt 0.967454 0.926545
vt 0.976949 0.934964
vt 0.975201 0.957874
vt 0.924749 0.953255
vt 0.924749 0.952321
vt 0.894846 0.942108
vt 0.948701 0.945276
vt 0.946781 0.963493
vt 0.916575 0.961716
vt 0.916710 0.953972
vt 0.944643 0.954577
vt 0.932391 0.963446
vt 0.916724 0.963106
vt 0.844470 0.779704
vt 0.844470 0.798797
vt 0.833739 0.798801
vt 0.833739 0.779708
vt 0.925359 0.971419
vt 0.912527 0.971141
vt 0.917727 0.897461
vt 0.917727 0.867203
vt 0.924844 0.867284
vt 0.924844 0.886357
vt 0.789206 0.916455
vt 0.789206 0.897451
vt 0.790841 0.897456
vt 0.790841 0.916460
vt 0.808362 0.906924
vt 0.808362 0.925997
vt 0.797633 0.926010
vt 0.797633 0.906938
vt 0.851992 0.657842
vt 0.853799 0.657842
vt 0.853799 0.668573
vt 0.851992 0.668573
vt 0.713125 0.905985
vt 0.700611 0.906005
vt 0.700611 0.882547
vt 0.722136 0.882447
vt 0.851077 0.925812
vt 0.861342 0.926672
vt 0.789654 0.870975
vt 0.790212 0.844786
vt 0.800100 0.846369
vt 0.806600 0.869973
vt 0.814575 0.905000
vt 0.852447 0.902389
vt 0.722542 0.708114
vt 0.722542 0.733254
vt 0.710984 0.725525
vt 0.712587 0.708102
vt 0.755062 0.874231
vt 0.737627 0.874231
vt 0.747834 0.850970
vt 0.755055 0.850926
vt 0.850357 0.657842
vt 0.850357 0.668573
vt 0.868417 0.695555
vt 0.868417 0.676551
vt 0.870222 0.676557
vt 0.870222 0.695560
vt 0.676382 0.943605
vt 0.676382 0.948436
vt 0.664533 0.950046
vt 0.664533 0.948411
vt 0.962965 0.985392
vt 0.973619 0.978620
vt 0.944012 0.940551
vt 0.934154 0.950626
vt 0.939180 0.961765
vt 0.915045 0.960353
vt 0.916966 0.941260
vt 0.934591 0.942291
vt 0.810917 0.926553
vt 0.808930 0.906922
vt 0.873579 0.958277
vt 0.868707 0.949839
vt 0.864328 0.971246
vt 0.775966 0.841073
vt 0.816570 0.837270
vt 0.834237 0.840098
vt 0.813838 0.838462
vt 0.847232 0.604660
vt 0.847866 0.593801
vt 0.728249 0.732557
vt 0.711416 0.731572
vt 0.713845 0.701463
vt 0.755557 0.692249
vt 0.875174 0.482729
vt 0.875174 0.423193
vt 0.843329 0.866688
vt 0.817068 0.866688
vt 0.793789 0.366853
vt 0.790443 0.419706
vt 0.784500 0.866688
vt 0.708456 0.270747
vt 0.704179 0.400466
vt 0.706634 0.459645
vt 0.354601 0.508350
vt 0.343822 0.426065
vt 0.887933 0.474754
vt 0.889747 0.576120
vt 0.790443 0.000000
vt 0.802130 0.232910
vt 0.666267 0.074297
vt 0.408771 0.617044
vt 0.407289 0.647919
vt 0.902295 0.701343
vt 0.322207 0.338062
vt 0.946514 0.171446
vt 0.913235 0.171468
vt 0.408039 0.660964
vt 0.407289 0.613799
vt 0.408771 0.713055
vt 0.860721 0.657842
vt 0.718012 0.932516
vt 0.734156 0.928005
vt 0.734156 0.937095
vt 0.718012 0.945604
vt 0.747947 0.704716
vt 0.754031 0.705186
vt 0.754075 0.717976
vt 0.747869 0.717330
vt 0.812485 0.745786
vt 0.827582 0.739486
vt 0.823221 0.791262
vt 0.815924 0.791216
vt 0.731772 0.717839
vt 0.715265 0.718963
vt 0.715392 0.685481
vt 0.731608 0.684806
vt 0.720164 0.885881
vt 0.720222 0.863296
vt 0.728097 0.863296
vt 0.727893 0.885881
vt 0.812637 0.710221
vt 0.812780 0.676719
vt 0.824530 0.676793
vt 0.824720 0.708082
vt 0.749810 0.716975
vt 0.749810 0.683060
vt 0.919564 0.384777
vt 0.937135 0.388507
vt 0.931256 0.406995
vt 0.919564 0.397220
vt 0.741581 0.704492
vt 0.741581 0.717453
vt 0.700270 0.928500
vt 0.700270 0.937775
vt 0.741581 0.692282
vt 0.748020 0.692834
vt 0.749810 0.752979
vt 0.737790 0.753553
vt 0.720110 0.907156
vt 0.727701 0.907156
vt 0.839769 0.708002
vt 0.840099 0.743836
vt 0.753989 0.693138
vt 0.937157 0.204461
vt 0.920269 0.204089
vt 0.921209 0.176252
vt 0.937735 0.177060
vt 0.764797 0.934423
vt 0.764797 0.953130
vt 0.755682 0.953054
vt 0.755682 0.934347
vt 0.935705 0.225996
vt 0.918817 0.225624
vt 0.865604 0.923310
vt 0.865363 0.888694
vt 0.873337 0.887956
vt 0.873578 0.922573
vt 0.864318 0.798998
vt 0.864318 0.779705
vt 0.873425 0.779912
vt 0.873425 0.799205
vt 0.823098 0.852071
vt 0.815124 0.852809
vt 0.815365 0.831541
vt 0.823338 0.830803
vt 0.713134 0.907156
vt 0.723677 0.907179
vt 0.723677 0.920879
vt 0.713134 0.920856
vt 0.838802 0.768270
vt 0.830083 0.768350
vt 0.713006 0.907156
vt 0.712932 0.885881
vt 0.800847 0.745712
vt 0.801329 0.710149
vt 0.700270 0.898787
vt 0.718012 0.890585
vt 0.718012 0.907513
vt 0.700270 0.910782
vt 0.919564 0.373133
vt 0.937135 0.371208
vt 0.801783 0.676649
vt 0.712854 0.863296
vt 0.955300 0.326249
vt 0.942699 0.326249
vt 0.945429 0.283584
vt 0.952119 0.283584
vt 0.734156 0.898883
vt 0.734156 0.910640
vt 0.957221 0.398525
vt 0.947216 0.398525
vt 0.949021 0.348035
vt 0.956223 0.348035
vt 0.708749 0.885881
vt 0.708592 0.863296
vt 0.799059 0.712619
vt 0.799945 0.681883
vt 0.919564 0.366398
vt 0.937135 0.361202
vt 0.794116 0.745669
vt 0.794789 0.710108
vt 0.708898 0.907156
vt 0.718012 0.923354
vt 0.700270 0.922008
vt 0.734156 0.921642
vt 0.703028 0.907156
vt 0.702774 0.885881
vt 0.785766 0.744659
vt 0.785446 0.710048
vt 0.798637 0.746925
vt 0.919564 0.356778
vt 0.937135 0.346909
vt 0.786338 0.676551
vt 0.795424 0.676609
vt 0.702503 0.863296
vt 0.752033 0.729408
vt 0.748137 0.729003
vt 0.679703 0.723855
vt 0.689448 0.721641
vt 0.689448 0.728942
vt 0.679703 0.734701
vt 0.935308 0.213067
vt 0.924692 0.213067
vt 0.925826 0.186784
vt 0.932076 0.186732
vt 0.751282 0.754663
vt 0.768138 0.753553
vt 0.761171 0.798886
vt 0.751282 0.799537
vt 0.940001 0.783539
vt 0.956856 0.783539
vt 0.951738 0.847090
vt 0.941849 0.847090
vt 0.720899 0.730826
vt 0.729717 0.731826
vt 0.729717 0.738008
vt 0.738481 0.723433
vt 0.914585 0.796789
vt 0.926538 0.796789
vt 0.923965 0.838300
vt 0.917619 0.838300
vt 0.810563 0.790446
vt 0.804384 0.790407
vt 0.930897 0.288088
vt 0.947847 0.288088
vt 0.943546 0.347251
vt 0.934546 0.347251
vt 0.713742 0.734485
vt 0.716082 0.722188
vt 0.720899 0.721642
vt 0.720899 0.733674
vt 0.943914 0.423193
vt 0.960920 0.423193
vt 0.958687 0.474376
vt 0.946446 0.474376
vt 0.805396 0.788410
vt 0.800551 0.788379
vt 0.918889 0.228695
vt 0.936042 0.228695
vt 0.934314 0.279860
vt 0.921968 0.279860
vt 0.698018 0.735218
vt 0.700819 0.723432
vt 0.706588 0.721642
vt 0.706588 0.732559
vt 0.960279 0.060128
vt 0.949566 0.060128
vt 0.952578 0.036137
vt 0.959303 0.036137
vt 0.793701 0.776679
vt 0.787664 0.776640
vt 0.947776 0.000000
vt 0.964814 0.000000
vt 0.961914 0.032127
vt 0.951218 0.032127
vt 0.684084 0.932516
vt 0.700270 0.928020
vt 0.700270 0.937110
vt 0.684084 0.945604
vt 0.851517 0.711349
vt 0.868289 0.712430
vt 0.868417 0.747971
vt 0.851315 0.746418
vt 0.903171 0.778542
vt 0.915548 0.778817
vt 0.913889 0.823375
vt 0.906589 0.823304
vt 0.929684 0.034486
vt 0.913235 0.035880
vt 0.913362 0.002448
vt 0.929524 0.001523
vt 0.853020 0.901919
vt 0.852926 0.866688
vt 0.865363 0.866688
vt 0.865226 0.901919
vt 0.903464 0.743092
vt 0.903740 0.709699
vt 0.915495 0.709813
vt 0.915552 0.743210
vt 0.947776 0.033866
vt 0.947776 -0.000000
vt 0.913235 0.325927
vt 0.930897 0.329687
vt 0.925018 0.348174
vt 0.913235 0.338370
vt 0.833739 0.710470
vt 0.833739 0.746477
vt 0.666267 0.928473
vt 0.666267 0.937747
vt 0.833739 0.676551
vt 0.851708 0.678313
vt 0.947776 0.069818
vt 0.935696 0.070120
vt 0.853108 0.935107
vt 0.865097 0.935107
vt 0.923546 0.743484
vt 0.923542 0.779091
vt 0.868168 0.678950
vt 0.931548 0.266611
vt 0.914688 0.266534
vt 0.913235 0.229983
vt 0.929734 0.230518
vt 0.874479 0.923396
vt 0.874479 0.942157
vt 0.865363 0.942071
vt 0.865363 0.923310
vt 0.930094 0.288088
vt 0.913235 0.288012
vt 0.948119 0.343727
vt 0.947847 0.310006
vt 0.955904 0.308999
vt 0.956175 0.342719
vt 0.855199 0.799094
vt 0.855199 0.779705
vt 0.864317 0.779851
vt 0.864317 0.799241
vt 0.948119 0.289096
vt 0.956175 0.288088
vt 0.784500 0.935992
vt 0.801298 0.936290
vt 0.801298 0.957928
vt 0.784500 0.957631
vt 0.924401 0.800526
vt 0.916407 0.800251
vt 0.841888 0.935107
vt 0.841597 0.901919
vt 0.891528 0.778428
vt 0.892151 0.742982
vt 0.666267 0.898760
vt 0.684084 0.890585
vt 0.684084 0.907513
vt 0.666267 0.910755
vt 0.913235 0.314283
vt 0.930897 0.312387
vt 0.892739 0.709592
vt 0.841288 0.866688
vt 0.958734 0.825787
vt 0.941443 0.825787
vt 0.944871 0.768015
vt 0.954051 0.768015
vt 0.700270 0.898899
vt 0.700270 0.910655
vt 0.957827 0.397895
vt 0.947826 0.397895
vt 0.949334 0.348174
vt 0.956533 0.348174
vt 0.834990 0.901919
vt 0.834557 0.866688
vt 0.885609 0.742919
vt 0.886377 0.709530
vt 0.913235 0.307549
vt 0.930897 0.302382
vt 0.884794 0.778363
vt 0.835399 0.935107
vt 0.684084 0.923354
vt 0.666267 0.921980
vt 0.700270 0.921657
vt 0.826129 0.935107
vt 0.825552 0.901919
vt 0.875174 0.778269
vt 0.876262 0.742828
vt 0.913235 0.297928
vt 0.877287 0.709442
vt 0.824941 0.866688
vt 0.862741 0.779704
vt 0.852005 0.778730
vt 0.790443 0.660029
vt 0.800269 0.657842
vt 0.800269 0.665142
vt 0.790443 0.670875
vt 0.962216 0.616631
vt 0.943914 0.616631
vt 0.944587 0.571583
vt 0.955423 0.571237
vt 0.943914 0.663997
vt 0.960716 0.662598
vt 0.953772 0.708032
vt 0.943914 0.708853
vt 0.943914 0.616631
vt 0.960828 0.616631
vt 0.957163 0.662598
vt 0.947239 0.662598
vt 0.841465 0.657842
vt 0.850357 0.658865
vt 0.850357 0.665047
vt 0.841465 0.667027
vt 0.930805 0.348174
vt 0.947826 0.348174
vt 0.944013 0.407326
vt 0.934976 0.407326
vt 0.899951 0.836170
vt 0.893769 0.836110
vt 0.931575 0.171468
vt 0.948511 0.171468
vt 0.943815 0.230655
vt 0.934823 0.230655
vt 0.827154 0.670800
vt 0.829493 0.658396
vt 0.834309 0.657842
vt 0.834309 0.669976
vt 0.943914 0.474377
vt 0.960927 0.474377
vt 0.958838 0.525532
vt 0.946592 0.525532
vt 0.889487 0.828511
vt 0.884640 0.828464
vt 0.941700 0.709442
vt 0.958783 0.709442
vt 0.956714 0.760624
vt 0.944418 0.760624
vt 0.810015 0.671511
vt 0.812816 0.659632
vt 0.818584 0.657842
vt 0.818584 0.668850
vt 0.962797 0.203116
vt 0.948511 0.203116
vt 0.952374 0.171468
vt 0.961343 0.171468
vt 0.881213 0.809467
vt 0.875174 0.809408
vt 0.946514 0.132064
vt 0.963574 0.132064
vt 0.960945 0.164213
vt 0.950236 0.164213
vt 0.780289 0.787918
vt 0.793448 0.792873
vt 0.805625 0.826808
vt 0.783973 0.830908
vt 0.507075 0.000000
vt 0.625000 0.000000
vt 0.625000 0.250000
vt 0.507075 0.250000
vt 0.507075 0.386056
vt 0.625000 0.386056
vt 0.625000 0.500000
vt 0.507075 0.500000
vt 0.625000 0.750000
vt 0.507075 0.750000
vt 0.507075 0.863944
vt 0.625000 0.863944
vt 0.625000 1.000000
vt 0.507075 1.000000
vt 0.261056 0.500000
vt 0.375000 0.500000
vt 0.375000 0.750000
vt 0.261056 0.750000
vt 0.738944 0.500000
vt 0.875000 0.500000
vt 0.875000 0.750000
vt 0.738944 0.750000
vt 0.442485 0.000000
vt 0.375000 0.000000
vt 0.442485 0.000000
vt 0.442485 0.500000
vt 0.442485 0.750000
vt 0.442485 0.386056
vt 0.442485 0.250000
vt 0.442485 0.863944
vt 0.442485 1.000000
vt 0.375000 0.863944
vt 0.375000 1.000000
vt 0.375000 0.250000
vt 0.375000 0.386056
vt 0.125000 0.750000
vt 0.125000 0.500000
s 0
usemtl Material.001
f 48/1/1 41/2/1 4/3/1 13/4/1
f 30/5/2 29/6/2 17/7/2 19/8/2
f 43/9/3 3/10/3 22/11/3 50/12/3
f 127/13/4 41/14/4 60/15/4 128/16/4
f 47/17/5 44/18/5 8/19/5 15/20/5
f 42/21/6 45/22/6 11/23/6 7/24/6
f 110/25/7 112/26/7 10/27/7 1/28/7
f 43/29/8 46/30/8 9/31/8 3/32/8
f 45/22/6 47/33/6 15/34/6 11/23/6
f 112/26/9 113/35/9 14/36/9 10/27/9
f 46/30/10 48/37/10 13/38/10 9/31/10
f 115/39/11 114/40/11 18/41/11 20/42/11
f 121/43/12 30/44/12 19/45/12 115/46/12
f 32/47/13 31/48/13 20/49/13 18/50/13
f 120/51/14 32/52/14 18/53/14 114/54/14
f 50/55/15 22/56/15 26/57/15 52/58/15
f 110/59/16 1/60/16 21/61/16 116/62/16
f 42/21/17 7/24/17 23/63/17 49/64/17
f 119/65/18 28/66/18 36/67/18 123/68/18
f 116/69/19 21/70/19 25/71/19 118/72/19
f 117/73/20 24/74/20 28/66/20 119/65/20
f 49/75/21 23/76/21 27/77/21 51/78/21
f 111/79/22 2/80/22 32/52/22 120/51/22
f 2/81/23 14/82/23 31/83/23 32/84/23
f 113/85/24 13/86/24 30/44/24 121/43/24
f 13/4/25 4/3/25 29/87/25 30/88/25
f 122/89/26 33/90/26 37/91/26 124/92/26
f 51/78/27 27/77/27 35/93/27 53/94/27
f 52/58/28 26/57/28 34/95/28 54/96/28
f 118/72/29 25/71/29 33/90/29 122/89/29
f 126/97/30 124/98/30 37/99/30 55/100/30
f 123/68/31 36/67/31 40/101/31 125/102/31
f 53/94/32 35/93/32 39/103/32 55/104/32
f 54/96/33 34/95/33 38/105/33 56/106/33
f 36/107/34 54/96/34 56/106/34 40/108/34
f 33/109/35 53/94/35 55/104/35 37/110/35
f 125/111/36 126/97/36 55/100/36 39/112/36
f 28/113/37 52/58/37 54/96/37 36/107/37
f 25/114/38 51/78/38 53/94/38 33/109/38
f 21/115/21 49/116/21 51/117/21 25/118/21
f 1/119/39 42/21/39 49/64/39 21/120/39
f 24/121/40 50/55/40 52/58/40 28/113/40
f 12/122/41 16/123/41 48/37/41 46/30/41
f 10/124/6 14/125/6 47/33/6 45/22/6
f 5/126/42 12/122/42 46/30/42 43/29/42
f 1/119/6 10/124/6 45/22/6 42/21/6
f 14/127/43 2/128/43 44/129/43 47/130/43
f 111/131/44 127/132/44 44/133/44 2/134/44
f 5/135/45 43/9/45 50/12/45 24/136/45
f 16/123/46 6/137/46 41/138/46 48/37/46
f 60/139/47 59/140/47 63/141/47 64/142/47
f 8/143/48 44/144/48 57/145/48 58/146/48
f 41/138/49 6/137/49 59/147/49 60/148/49
f 129/149/50 64/150/50 68/151/50 130/152/50
f 58/153/6 57/154/6 61/155/6 62/156/6
f 128/16/51 60/15/51 64/157/51 129/158/51
f 131/159/52 69/160/52 107/161/52 141/162/52
f 64/142/53 63/141/53 67/163/53 68/164/53
f 62/156/54 61/155/54 65/165/54 66/166/54
f 70/167/55 69/168/55 73/169/55 74/170/55
f 86/171/56 85/172/56 71/173/56 72/174/56
f 88/175/57 87/176/57 69/168/57 70/167/57
f 76/177/58 75/178/58 79/179/58 80/180/58
f 131/181/59 72/182/59 76/183/59 132/184/59
f 72/174/60 71/173/60 75/185/60 76/186/60
f 80/187/61 79/188/61 91/189/61 92/190/61
f 74/170/62 73/169/62 77/191/62 78/192/62
f 132/184/63 76/183/63 80/193/63 133/194/63
f 66/166/64 65/165/64 83/195/64 84/196/64
f 68/197/65 67/198/65 81/199/65 82/200/65
f 134/201/66 130/202/66 277/202/66 278/201/66
f 84/196/67 83/195/67 87/176/67 88/175/67
f 82/200/68 81/199/68 85/172/68 86/171/68
f 134/203/69 82/204/69 86/205/69 135/206/69
f 136/207/70 92/208/70 96/209/70 137/210/70
f 78/211/71 77/212/71 89/213/71 90/214/71
f 133/215/72 80/216/72 92/217/72 136/218/72
f 137/210/73 96/209/73 100/219/73 138/220/73
f 92/221/74 91/222/74 95/223/74 96/224/74
f 90/225/75 89/226/75 93/227/75 94/228/75
f 100/229/6 99/230/6 103/231/6 104/232/6
f 94/228/76 93/227/76 97/233/76 98/234/76
f 96/235/77 95/236/77 99/237/77 100/238/77
f 140/239/44 139/240/44 102/241/44 101/242/44
f 98/243/47 97/244/47 101/245/47 102/246/47
f 138/247/78 100/248/78 104/249/78 140/250/78
f 142/251/79 108/252/79 106/253/79 141/254/79
f 135/206/80 86/205/80 108/255/80 142/256/80
f 69/257/81 87/258/81 109/259/81 107/260/81
f 86/205/82 72/261/82 106/262/82 108/255/82
f 87/263/83 135/264/83 142/265/83 109/266/83
f 109/267/84 142/268/84 141/269/84 107/270/84
f 97/271/78 138/247/78 140/250/78 101/272/78
f 104/273/44 103/274/44 139/275/44 140/276/44
f 93/277/73 137/278/73 138/279/73 97/280/73
f 77/281/72 133/215/72 136/218/72 89/282/72
f 89/283/70 136/207/70 137/210/70 93/284/70
f 83/285/51 134/286/51 135/287/51 87/288/51
f 65/289/85 130/202/85 134/201/85 83/290/85
f 73/291/86 132/184/86 133/194/86 77/292/86
f 69/293/87 131/181/87 132/184/87 73/291/87
f 72/294/88 131/295/88 141/296/88 106/297/88
f 57/298/51 128/16/51 129/158/51 61/299/51
f 61/300/89 129/301/89 130/302/89 65/303/89
f 4/304/44 41/305/44 127/132/44 111/131/44
f 40/306/90 56/307/90 126/97/90 125/111/90
f 35/308/91 123/68/91 125/102/91 39/309/91
f 56/307/92 38/310/92 124/98/92 126/97/92
f 26/311/93 118/72/93 122/89/93 34/312/93
f 34/312/94 122/89/94 124/92/94 38/313/94
f 14/314/24 113/85/24 121/43/24 31/315/24
f 4/316/22 111/79/22 120/51/22 29/317/22
f 23/318/95 117/73/95 119/65/95 27/319/95
f 22/320/96 116/69/96 118/72/96 26/311/96
f 27/319/97 119/65/97 123/68/97 35/308/97
f 3/321/98 110/59/98 116/62/98 22/322/98
f 29/317/14 120/51/14 114/54/14 17/323/14
f 31/315/12 121/43/12 115/46/12 20/324/12
f 19/325/99 17/326/99 114/40/99 115/39/99
f 9/327/100 13/328/100 113/35/100 112/26/100
f 3/329/101 9/327/101 112/26/101 110/25/101
f 44/330/4 127/13/4 128/16/4 57/298/4
f 187/331/102 185/332/102 146/333/102 152/334/102
f 160/335/103 156/336/103 150/337/103 153/338/103
f 172/339/104 148/340/104 194/341/104 193/342/104
f 159/343/105 158/344/105 144/345/105 151/346/105
f 176/347/106 171/348/106 147/349/106 157/350/106
f 175/351/107 170/352/107 144/353/107 158/354/107
f 157/355/108 159/343/108 151/346/108 143/356/108
f 171/357/109 173/358/109 154/359/109 147/360/109
f 155/361/110 160/335/110 153/338/110 149/362/110
f 188/363/111 187/331/111 152/334/111 145/364/111
f 145/365/112 152/366/112 160/335/112 155/361/112
f 147/367/113 154/368/113 159/343/113 157/355/113
f 172/339/114 175/351/114 158/354/114 148/340/114
f 169/369/106 176/347/106 157/350/106 143/370/106
f 148/340/115 158/354/115 163/371/115 161/372/115
f 152/366/116 146/373/116 156/336/116 160/335/116
f 162/374/117 161/375/117 163/376/117 164/377/117
f 158/378/118 159/379/118 164/380/118 163/381/118
f 161/375/119 162/374/119 168/382/119 167/383/119
f 159/384/120 154/385/120 162/386/120 164/387/120
f 166/388/121 165/389/121 167/390/121 168/391/121
f 162/392/122 154/393/122 166/394/122 168/395/122
f 154/396/123 148/397/123 165/398/123 166/399/123
f 148/340/124 161/372/124 167/400/124 165/401/124
f 180/402/106 184/403/106 176/347/106 169/369/106
f 181/404/107 183/405/107 175/351/107 172/339/107
f 143/406/111 151/407/111 174/408/111 169/409/111
f 178/410/125 182/411/125 173/358/125 171/357/125
f 183/405/107 177/412/107 170/352/107 175/351/107
f 184/403/106 178/413/106 171/348/106 176/347/106
f 173/414/126 182/415/126 199/416/126 200/417/126
f 151/407/102 144/418/102 170/419/102 174/408/102
f 182/420/127 190/421/127 203/422/127 204/423/127
f 192/424/106 186/425/106 178/413/106 184/403/106
f 191/426/107 185/427/107 177/412/107 183/405/107
f 186/428/125 190/429/125 182/411/125 178/410/125
f 189/430/107 191/431/107 183/405/107 181/404/107
f 188/432/106 192/424/106 184/403/106 180/402/106
f 169/409/111 174/408/111 179/433/111 180/434/111
f 174/408/102 170/419/102 177/435/102 179/433/102
f 145/436/106 155/437/106 192/424/106 188/432/106
f 150/438/107 156/439/107 191/426/107 189/440/107
f 149/441/125 153/442/125 190/429/125 186/428/125
f 156/439/107 146/443/107 185/444/107 191/431/107
f 155/437/106 149/445/106 186/425/106 192/424/106
f 153/338/128 150/337/128 205/446/128 206/447/128
f 180/434/111 179/433/111 187/331/111 188/363/111
f 179/433/102 177/435/102 185/332/102 187/331/102
f 196/448/129 193/449/129 194/450/129 195/451/129
f 154/452/130 173/453/130 196/454/130 195/455/130
f 148/456/131 154/457/131 195/458/131 194/459/131
f 173/460/132 172/461/132 193/462/132 196/463/132
f 199/464/129 197/465/129 198/466/129 200/467/129
f 182/468/133 181/469/133 197/470/133 199/471/133
f 181/404/134 172/339/134 198/472/134 197/473/134
f 172/474/135 173/475/135 200/476/135 198/477/135
f 203/478/129 201/479/129 202/480/129 204/481/129
f 181/482/136 182/483/136 204/484/136 202/485/136
f 189/440/137 181/404/137 202/486/137 201/487/137
f 190/488/138 189/489/138 201/490/138 203/491/138
f 206/492/129 205/493/129 207/494/129 208/495/129
f 190/496/139 153/497/139 206/498/139 208/499/139
f 150/438/140 189/440/140 207/500/140 205/501/140
f 189/502/141 190/503/141 208/504/141 207/505/141
f 253/506/142 251/507/142 212/508/142 218/509/142
f 226/510/143 222/511/143 216/512/143 219/513/143
f 238/514/144 214/515/144 260/516/144 259/517/144
f 225/518/145 224/519/145 210/520/145 217/521/145
f 242/522/146 237/523/146 213/524/146 223/525/146
f 241/526/147 236/527/147 210/528/147 224/529/147
f 223/530/148 225/518/148 217/521/148 209/531/148
f 237/532/149 239/533/149 220/534/149 213/535/149
f 221/536/150 226/510/150 219/513/150 215/537/150
f 254/538/151 253/506/151 218/509/151 211/539/151
f 211/540/152 218/541/152 226/510/152 221/536/152
f 213/542/153 220/543/153 225/518/153 223/530/153
f 238/514/154 241/526/154 224/529/154 214/515/154
f 235/544/146 242/522/146 223/525/146 209/545/146
f 214/515/155 224/529/155 229/546/155 227/547/155
f 218/541/156 212/548/156 222/511/156 226/510/156
f 228/549/157 227/550/157 229/551/157 230/552/157
f 224/553/158 225/554/158 230/555/158 229/556/158
f 227/550/159 228/549/159 234/557/159 233/558/159
f 225/559/160 220/560/160 228/561/160 230/562/160
f 232/563/161 231/564/161 233/565/161 234/566/161
f 228/561/162 220/560/162 232/567/162 234/568/162
f 220/569/163 214/570/163 231/571/163 232/572/163
f 214/515/164 227/547/164 233/573/164 231/574/164
f 246/575/146 250/576/146 242/522/146 235/544/146
f 247/577/147 249/578/147 241/526/147 238/514/147
f 209/579/151 217/580/151 240/581/151 235/582/151
f 244/583/165 248/584/165 239/533/165 237/532/165
f 249/578/147 243/585/147 236/527/147 241/526/147
f 250/576/146 244/586/146 237/523/146 242/522/146
f 239/587/166 248/588/166 265/589/166 266/590/166
f 217/580/142 210/591/142 236/592/142 240/581/142
f 248/593/167 256/594/167 269/595/167 270/596/167
f 258/597/146 252/598/146 244/586/146 250/576/146
f 257/599/147 251/600/147 243/585/147 249/578/147
f 252/601/165 256/602/165 248/584/165 244/583/165
f 255/603/147 257/599/147 249/578/147 247/577/147
f 254/604/146 258/597/146 250/576/146 246/575/146
f 235/582/151 240/581/151 245/605/151 246/606/151
f 240/581/142 236/592/142 243/607/142 245/605/142
f 211/608/146 221/609/146 258/597/146 254/604/146
f 216/610/147 222/611/147 257/599/147 255/603/147
f 215/612/165 219/474/165 256/602/165 252/601/165
f 222/611/147 212/613/147 251/600/147 257/599/147
f 221/609/146 215/614/146 252/598/146 258/597/146
f 219/513/168 216/512/168 271/615/168 272/616/168
f 246/606/151 245/605/151 253/506/151 254/538/151
f 245/605/142 243/607/142 251/507/142 253/506/142
f 262/617/169 259/618/169 260/619/169 261/620/169
f 220/621/170 239/622/170 262/623/170 261/624/170
f 214/625/171 220/626/171 261/627/171 260/628/171
f 239/629/172 238/630/172 259/631/172 262/632/172
f 265/633/169 263/634/169 264/635/169 266/636/169
f 248/637/173 247/638/173 263/639/173 265/640/173
f 247/577/174 238/514/174 264/641/174 263/642/174
f 238/643/175 239/644/175 266/645/175 264/646/175
f 269/647/169 267/648/169 268/649/169 270/650/169
f 247/651/176 248/652/176 270/653/176 268/654/176
f 255/603/177 247/577/177 268/655/177 267/656/177
f 256/657/178 255/658/178 267/659/178 269/660/178
f 272/661/169 271/662/169 273/663/169 274/664/169
f 256/665/179 219/666/179 272/667/179 274/668/179
f 216/610/180 255/603/180 273/669/180 271/670/180
f 255/671/181 256/672/181 274/673/181 273/674/181
f 277/675/182 275/676/182 276/677/182 278/678/182
f 68/197/183 82/200/183 276/200/183 275/197/183
f 82/204/184 134/203/184 278/203/184 276/204/184
f 130/152/185 68/151/185 275/151/185 277/152/185
f 380/1/221 349/4/221 346/3/221 373/2/221
f 362/5/222 353/8/222 351/7/222 361/6/222
f 375/9/223 382/12/223 356/11/223 345/10/223
f 433/13/224 434/16/224 390/15/224 373/14/224
f 379/17/225 15/20/225 8/19/225 376/18/225
f 374/21/6 7/24/6 11/23/6 377/22/6
f 417/25/226 343/28/226 348/27/226 419/26/226
f 375/29/227 345/32/227 347/31/227 378/30/227
f 377/22/6 11/23/6 15/34/6 379/33/6
f 419/26/228 348/27/228 350/36/228 420/35/228
f 378/30/229 347/31/229 349/38/229 380/37/229
f 422/39/230 354/42/230 352/41/230 421/40/230
f 427/43/231 422/46/231 353/45/231 362/44/231
f 364/47/232 352/50/232 354/49/232 363/48/232
f 426/51/233 421/54/233 352/53/233 364/52/233
f 382/55/234 384/58/234 358/57/234 356/56/234
f 417/59/235 423/62/235 355/61/235 343/60/235
f 374/21/236 381/64/236 23/63/236 7/24/236
f 425/65/237 429/68/237 368/67/237 360/66/237
f 423/69/238 424/72/238 357/71/238 355/70/238
f 117/73/239 425/65/239 360/66/239 24/74/239
f 381/75/240 383/78/240 359/77/240 23/76/240
f 418/79/241 426/51/241 364/52/241 344/80/241
f 344/81/242 364/84/242 363/83/242 350/82/242
f 420/85/243 427/43/243 362/44/243 349/86/243
f 349/4/244 362/88/244 361/87/244 346/3/244
f 428/89/245 430/92/245 369/91/245 365/90/245
f 383/78/246 385/94/246 367/93/246 359/77/246
f 384/58/247 386/96/247 366/95/247 358/57/247
f 424/72/248 428/89/248 365/90/248 357/71/248
f 432/97/249 387/100/249 369/99/249 430/98/249
f 429/68/250 431/102/250 372/101/250 368/67/250
f 385/94/251 387/104/251 371/103/251 367/93/251
f 386/96/252 388/106/252 370/105/252 366/95/252
f 368/107/253 372/108/253 388/106/253 386/96/253
f 365/109/254 369/110/254 387/104/254 385/94/254
f 431/111/255 371/112/255 387/100/255 432/97/255
f 360/113/256 368/107/256 386/96/256 384/58/256
f 357/114/257 365/109/257 385/94/257 383/78/257
f 355/115/240 357/118/240 383/117/240 381/116/240
f 343/119/258 355/120/258 381/64/258 374/21/258
f 24/121/259 360/113/259 384/58/259 382/55/259
f 12/122/260 378/30/260 380/37/260 16/123/260
f 348/124/6 377/22/6 379/33/6 350/125/6
f 5/126/261 375/29/261 378/30/261 12/122/261
f 343/119/6 374/21/6 377/22/6 348/124/6
f 350/127/262 379/130/262 376/129/262 344/128/262
f 418/131/44 344/134/44 376/133/44 433/132/44
f 5/135/263 24/136/263 382/12/263 375/9/263
f 16/123/264 380/37/264 373/138/264 6/137/264
f 390/139/47 392/142/47 63/141/47 59/140/47
f 8/143/48 58/146/48 389/145/48 376/144/48
f 373/138/49 390/148/49 59/147/49 6/137/49
f 435/149/265 436/152/265 394/151/265 392/150/265
f 58/153/6 62/156/6 391/155/6 389/154/6
f 434/16/78 435/158/78 392/157/78 390/15/78
f 437/159/266 446/162/266 414/161/266 395/160/266
f 392/142/267 394/164/267 67/163/267 63/141/267
f 62/156/268 66/166/268 393/165/268 391/155/268
f 70/167/269 74/170/269 397/169/269 395/168/269
f 403/171/270 396/174/270 71/173/270 85/172/270
f 88/175/271 70/167/271 395/168/271 404/176/271
f 398/177/272 400/180/272 79/179/272 75/178/272
f 437/181/273 438/184/273 398/183/273 396/182/273
f 396/174/274 398/186/274 75/185/274 71/173/274
f 400/187/61 406/190/61 91/189/61 79/188/61
f 74/170/62 78/192/62 399/191/62 397/169/62
f 438/184/275 439/194/275 400/193/275 398/183/275
f 66/166/276 84/196/276 402/195/276 393/165/276
f 394/197/277 401/200/277 81/199/277 67/198/277
f 440/201/278 583/201/278 582/202/278 436/202/278
f 84/196/279 88/175/279 404/176/279 402/195/279
f 401/200/280 403/171/280 85/172/280 81/199/280
f 440/203/281 441/206/281 403/205/281 401/204/281
f 442/207/282 443/210/282 408/209/282 406/208/282
f 78/211/71 90/214/71 405/213/71 399/212/71
f 439/215/283 442/218/283 406/217/283 400/216/283
f 443/210/284 444/220/284 410/219/284 408/209/284
f 406/221/74 408/224/74 95/223/74 91/222/74
f 90/225/75 94/228/75 407/227/75 405/226/75
f 410/229/6 412/232/6 103/231/6 99/230/6
f 94/228/76 98/234/76 409/233/76 407/227/76
f 408/235/77 410/238/77 99/237/77 95/236/77
f 445/239/44 411/242/44 102/241/44 139/240/44
f 98/243/47 102/246/47 411/245/47 409/244/47
f 444/247/51 445/250/51 412/249/51 410/248/51
f 447/251/285 446/254/285 413/253/285 415/252/285
f 441/206/286 447/256/286 415/255/286 403/205/286
f 395/257/287 414/260/287 416/259/287 404/258/287
f 403/205/288 415/255/288 413/262/288 396/261/288
f 404/263/289 416/266/289 447/265/289 441/264/289
f 416/267/290 414/270/290 446/269/290 447/268/290
f 409/271/51 411/272/51 445/250/51 444/247/51
f 412/273/44 445/276/44 139/275/44 103/274/44
f 407/277/284 409/280/284 444/279/284 443/278/284
f 399/281/283 405/282/283 442/218/283 439/215/283
f 405/283/282 407/284/282 443/210/282 442/207/282
f 402/285/78 404/288/78 441/287/78 440/286/78
f 393/289/291 402/290/291 440/201/291 436/202/291
f 397/291/292 399/292/292 439/194/292 438/184/292
f 395/293/293 397/291/293 438/184/293 437/181/293
f 396/294/294 413/297/294 446/296/294 437/295/294
f 389/298/78 391/299/78 435/158/78 434/16/78
f 391/300/295 393/303/295 436/302/295 435/301/295
f 346/304/44 418/131/44 433/132/44 373/305/44
f 372/306/296 431/111/296 432/97/296 388/307/296
f 367/308/297 371/309/297 431/102/297 429/68/297
f 388/307/298 432/97/298 430/98/298 370/310/298
f 358/311/299 366/312/299 428/89/299 424/72/299
f 366/312/300 370/313/300 430/92/300 428/89/300
f 350/314/243 363/315/243 427/43/243 420/85/243
f 346/316/241 361/317/241 426/51/241 418/79/241
f 23/318/301 359/319/301 425/65/301 117/73/301
f 356/320/302 358/311/302 424/72/302 423/69/302
f 359/319/303 367/308/303 429/68/303 425/65/303
f 345/321/304 356/322/304 423/62/304 417/59/304
f 361/317/233 351/323/233 421/54/233 426/51/233
f 363/315/231 354/324/231 422/46/231 427/43/231
f 353/325/305 422/39/305 421/40/305 351/326/305
f 347/327/306 419/26/306 420/35/306 349/328/306
f 345/329/307 417/25/307 419/26/307 347/327/307
f 376/330/224 389/298/224 434/16/224 433/13/224
f 492/331/308 457/334/308 451/333/308 490/332/308
f 465/335/309 458/338/309 455/337/309 461/336/309
f 477/339/310 498/342/310 499/341/310 453/340/310
f 464/343/311 456/346/311 449/345/311 463/344/311
f 481/347/312 462/350/312 452/349/312 476/348/312
f 480/351/313 463/354/313 449/353/313 475/352/313
f 462/355/314 448/356/314 456/346/314 464/343/314
f 476/357/315 452/360/315 459/359/315 478/358/315
f 460/361/316 454/362/316 458/338/316 465/335/316
f 493/363/317 450/364/317 457/334/317 492/331/317
f 450/365/318 460/361/318 465/335/318 457/366/318
f 452/367/319 462/355/319 464/343/319 459/368/319
f 477/339/320 453/340/320 463/354/320 480/351/320
f 474/369/312 448/370/312 462/350/312 481/347/312
f 453/340/321 466/372/321 468/371/321 463/354/321
f 457/366/322 465/335/322 461/336/322 451/373/322
f 467/374/323 469/377/323 468/376/323 466/375/323
f 463/378/324 468/381/324 469/380/324 464/379/324
f 466/375/163 472/383/163 473/382/163 467/374/163
f 464/384/325 469/387/325 467/386/325 459/385/325
f 471/388/326 473/391/326 472/390/326 470/389/326
f 467/392/164 473/395/164 471/394/164 459/393/164
f 459/396/159 471/399/159 470/398/159 453/397/159
f 453/340/162 470/401/162 472/400/162 466/372/162
f 485/402/312 474/369/312 481/347/312 489/403/312
f 486/404/313 477/339/313 480/351/313 488/405/313
f 448/406/317 474/409/317 479/408/317 456/407/317
f 483/410/327 476/357/327 478/358/327 487/411/327
f 488/405/313 480/351/313 475/352/313 482/412/313
f 489/403/312 481/347/312 476/348/312 483/413/312
f 478/414/328 505/417/328 504/416/328 487/415/328
f 456/407/308 479/408/308 475/419/308 449/418/308
f 487/420/329 509/423/329 508/422/329 495/421/329
f 497/424/312 489/403/312 483/413/312 491/425/312
f 496/426/313 488/405/313 482/412/313 490/427/313
f 491/428/327 483/410/327 487/411/327 495/429/327
f 494/430/313 486/404/313 488/405/313 496/431/313
f 493/432/312 485/402/312 489/403/312 497/424/312
f 474/409/317 485/434/317 484/433/317 479/408/317
f 479/408/308 484/433/308 482/435/308 475/419/308
f 450/436/312 493/432/312 497/424/312 460/437/312
f 455/438/313 494/440/313 496/426/313 461/439/313
f 454/441/327 491/428/327 495/429/327 458/442/327
f 461/439/313 496/431/313 490/444/313 451/443/313
f 460/437/312 497/424/312 491/425/312 454/445/312
f 458/338/330 511/447/330 510/446/330 455/337/330
f 485/434/317 493/363/317 492/331/317 484/433/317
f 484/433/308 492/331/308 490/332/308 482/435/308
f 501/448/331 500/451/331 499/450/331 498/449/331
f 459/452/332 500/455/332 501/454/332 478/453/332
f 453/456/333 499/459/333 500/458/333 459/457/333
f 478/460/334 501/463/334 498/462/334 477/461/334
f 504/464/331 505/467/331 503/466/331 502/465/331
f 487/468/335 504/471/335 502/470/335 486/469/335
f 486/404/336 502/473/336 503/472/336 477/339/336
f 477/474/337 503/477/337 505/476/337 478/475/337
f 508/478/331 509/481/331 507/480/331 506/479/331
f 486/482/338 507/485/338 509/484/338 487/483/338
f 494/440/339 506/487/339 507/486/339 486/404/339
f 495/488/340 508/491/340 506/490/340 494/489/340
f 511/492/331 513/495/331 512/494/331 510/493/331
f 495/496/341 513/499/341 511/498/341 458/497/341
f 455/438/342 510/501/342 512/500/342 494/440/342
f 494/502/343 512/505/343 513/504/343 495/503/343
f 558/506/344 523/509/344 517/508/344 556/507/344
f 531/510/345 524/513/345 521/512/345 527/511/345
f 543/514/346 564/517/346 565/516/346 519/515/346
f 530/518/347 522/521/347 515/520/347 529/519/347
f 547/522/348 528/525/348 518/524/348 542/523/348
f 546/526/349 529/529/349 515/528/349 541/527/349
f 528/530/350 514/531/350 522/521/350 530/518/350
f 542/532/351 518/535/351 525/534/351 544/533/351
f 526/536/352 520/537/352 524/513/352 531/510/352
f 559/538/353 516/539/353 523/509/353 558/506/353
f 516/540/354 526/536/354 531/510/354 523/541/354
f 518/542/355 528/530/355 530/518/355 525/543/355
f 543/514/356 519/515/356 529/529/356 546/526/356
f 540/544/348 514/545/348 528/525/348 547/522/348
f 519/515/357 532/547/357 534/546/357 529/529/357
f 523/541/358 531/510/358 527/511/358 517/548/358
f 533/549/359 535/552/359 534/551/359 532/550/359
f 529/553/360 534/556/360 535/555/360 530/554/360
f 532/550/123 538/558/123 539/557/123 533/549/123
f 530/559/361 535/562/361 533/561/361 525/560/361
f 537/563/362 539/566/362 538/565/362 536/564/362
f 533/561/124 539/568/124 537/567/124 525/560/124
f 525/569/119 537/572/119 536/571/119 519/570/119
f 519/515/122 536/574/122 538/573/122 532/547/122
f 551/575/348 540/544/348 547/522/348 555/576/348
f 552/577/349 543/514/349 546/526/349 554/578/349
f 514/579/353 540/582/353 545/581/353 522/580/353
f 549/583/363 542/532/363 544/533/363 553/584/363
f 554/578/349 546/526/349 541/527/349 548/585/349
f 555/576/348 547/522/348 542/523/348 549/586/348
f 544/587/364 571/590/364 570/589/364 553/588/364
f 522/580/344 545/581/344 541/592/344 515/591/344
f 553/593/365 575/596/365 574/595/365 561/594/365
f 563/597/348 555/576/348 549/586/348 557/598/348
f 562/599/349 554/578/349 548/585/349 556/600/349
f 557/601/363 549/583/363 553/584/363 561/602/363
f 560/603/349 552/577/349 554/578/349 562/599/349
f 559/604/348 551/575/348 555/576/348 563/597/348
f 540/582/353 551/606/353 550/605/353 545/581/353
f 545/581/344 550/605/344 548/607/344 541/592/344
f 516/608/348 559/604/348 563/597/348 526/609/348
f 521/610/349 560/603/349 562/599/349 527/611/349
f 520/612/363 557/601/363 561/602/363 524/474/363
f 527/611/349 562/599/349 556/600/349 517/613/349
f 526/609/348 563/597/348 557/598/348 520/614/348
f 524/513/366 577/616/366 576/615/366 521/512/366
f 551/606/353 559/538/353 558/506/353 550/605/353
f 550/605/344 558/506/344 556/507/344 548/607/344
f 567/617/367 566/620/367 565/619/367 564/618/367
f 525/621/368 566/624/368 567/623/368 544/622/368
f 519/625/369 565/628/369 566/627/369 525/626/369
f 544/629/370 567/632/370 564/631/370 543/630/370
f 570/633/367 571/636/367 569/635/367 568/634/367
f 553/637/371 570/640/371 568/639/371 552/638/371
f 552/577/372 568/642/372 569/641/372 543/514/372
f 543/643/373 569/646/373 571/645/373 544/644/373
f 574/647/367 575/650/367 573/649/367 572/648/367
f 552/651/374 573/654/374 575/653/374 553/652/374
f 560/603/375 572/656/375 573/655/375 552/577/375
f 561/657/376 574/660/376 572/659/376 560/658/376
f 577/661/367 579/664/367 578/663/367 576/662/367
f 561/665/377 579/668/377 577/667/377 524/666/377
f 521/610/378 576/670/378 578/669/378 560/603/378
f 560/671/379 578/674/379 579/673/379 561/672/379
f 582/675/380 583/678/380 581/677/380 580/676/380
f 394/197/381 580/197/381 581/200/381 401/200/381
f 401/204/382 581/204/382 583/203/382 440/203/382
f 436/152/383 582/152/383 580/151/383 394/151/383
usemtl Material.002
f 287/679/78 280/680/78 282/681/78 288/682/78
f 306/683/47 302/684/47 286/685/47 289/686/47
f 289/686/51 286/685/51 284/687/51 290/688/51
f 305/689/6 304/690/6 280/691/6 287/692/6
f 301/693/186 285/694/186 283/695/186 303/696/186
f 302/697/44 282/698/44 280/699/44 304/700/44
f 298/701/187 279/702/187 293/702/187 300/703/187
f 296/704/188 289/686/188 290/688/188 297/705/188
f 310/706/189 306/683/189 289/686/189 296/704/189
f 298/701/190 287/679/190 288/682/190 295/707/190
f 309/708/191 308/689/191 294/692/191 300/709/191
f 303/696/186 283/695/186 292/695/186 307/696/186
f 297/705/192 290/688/192 291/688/192 299/705/192
f 305/689/193 287/692/193 294/692/193 308/689/193
f 283/695/194 297/705/194 299/705/194 292/695/194
f 307/710/195 309/708/195 300/709/195 293/711/195
f 279/702/196 298/701/196 295/707/196 281/712/196
f 301/713/197 310/706/197 296/704/197 285/694/197
f 285/694/198 296/704/198 297/705/198 283/695/198
f 287/679/199 298/701/199 300/703/199 294/679/199
f 281/712/200 295/707/200 310/706/200 301/713/200
f 292/695/201 299/705/201 309/708/201 307/710/201
f 290/688/202 305/689/202 308/689/202 291/688/202
f 279/714/186 303/696/186 307/696/186 293/714/186
f 299/705/203 291/688/203 308/689/203 309/708/203
f 295/707/189 288/682/189 306/683/189 310/706/189
f 286/685/44 302/697/44 304/700/44 284/687/44
f 281/715/186 301/693/186 303/696/186 279/714/186
f 290/688/6 284/687/6 304/690/6 305/689/6
f 288/682/47 282/681/47 302/684/47 306/683/47
f 319/679/78 312/680/78 314/681/78 320/682/78
f 338/683/6 334/684/6 318/685/6 321/686/6
f 321/686/51 318/685/51 316/687/51 322/688/51
f 337/689/47 336/690/47 312/691/47 319/692/47
f 333/693/44 317/694/44 315/695/44 335/696/44
f 334/697/186 314/698/186 312/699/186 336/700/186
f 330/701/204 311/702/204 325/702/204 332/703/204
f 328/704/205 321/686/205 322/688/205 329/705/205
f 342/706/206 338/683/206 321/686/206 328/704/206
f 330/701/207 319/679/207 320/682/207 327/707/207
f 341/708/208 340/689/208 326/692/208 332/709/208
f 335/696/44 315/695/44 324/695/44 339/696/44
f 329/705/209 322/688/209 323/688/209 331/705/209
f 337/689/210 319/692/210 326/692/210 340/689/210
f 315/695/211 329/705/211 331/705/211 324/695/211
f 339/710/212 341/708/212 332/709/212 325/711/212
f 311/702/213 330/701/213 327/707/213 313/712/213
f 333/713/214 342/706/214 328/704/214 317/694/214
f 317/694/215 328/704/215 329/705/215 315/695/215
f 319/679/216 330/701/216 332/703/216 326/679/216
f 313/712/217 327/707/217 342/706/217 333/713/217
f 324/695/218 331/705/218 341/708/218 339/710/218
f 322/688/219 337/689/219 340/689/219 323/688/219
f 311/714/44 335/696/44 339/696/44 325/714/44
f 331/705/220 323/688/220 340/689/220 341/708/220
f 327/707/206 320/682/206 338/683/206 342/706/206
f 318/685/186 334/697/186 336/700/186 316/687/186
f 313/715/44 333/693/44 335/696/44 311/714/44
f 322/688/47 316/687/47 336/690/47 337/689/47
f 320/682/6 314/681/6 334/684/6 338/683/6
f 592/679/51 593/682/51 587/681/51 585/680/51
f 611/683/47 594/686/47 591/685/47 607/684/47
f 594/686/78 595/688/78 589/687/78 591/685/78
f 610/689/6 592/692/6 585/691/6 609/690/6
f 606/693/186 608/696/186 588/695/186 590/694/186
f 607/697/44 609/700/44 585/699/44 587/698/44
f 603/701/211 605/703/211 598/702/211 584/702/211
f 601/704/207 602/705/207 595/688/207 594/686/207
f 615/706/189 601/704/189 594/686/189 611/683/189
f 603/701/205 600/707/205 593/682/205 592/679/205
f 614/708/384 605/709/384 599/692/384 613/689/384
f 608/696/186 612/696/186 597/695/186 588/695/186
f 602/705/216 604/705/216 596/688/216 595/688/216
f 610/689/385 613/689/385 599/692/385 592/692/385
f 588/695/204 597/695/204 604/705/204 602/705/204
f 612/710/386 598/711/386 605/709/386 614/708/386
f 584/702/215 586/712/215 600/707/215 603/701/215
f 606/713/387 590/694/387 601/704/387 615/706/387
f 590/694/213 588/695/213 602/705/213 601/704/213
f 592/679/209 599/679/209 605/703/209 603/701/209
f 586/712/388 606/713/388 615/706/388 600/707/388
f 597/695/389 612/710/389 614/708/389 604/705/389
f 595/688/390 596/688/390 613/689/390 610/689/390
f 584/714/186 598/714/186 612/696/186 608/696/186
f 604/705/391 614/708/391 613/689/391 596/688/391
f 600/707/189 615/706/189 611/683/189 593/682/189
f 591/685/44 589/687/44 609/700/44 607/697/44
f 586/715/186 584/714/186 608/696/186 606/693/186
f 595/688/6 610/689/6 609/690/6 589/687/6
f 593/682/47 611/683/47 607/684/47 587/681/47
f 624/679/51 625/682/51 619/681/51 617/680/51
f 643/683/6 626/686/6 623/685/6 639/684/6
f 626/686/78 627/688/78 621/687/78 623/685/78
f 642/689/47 624/692/47 617/691/47 641/690/47
f 638/693/44 640/696/44 620/695/44 622/694/44
f 639/697/186 641/700/186 617/699/186 619/698/186
f 635/701/194 637/703/194 630/702/194 616/702/194
f 633/704/190 634/705/190 627/688/190 626/686/190
f 647/706/206 633/704/206 626/686/206 643/683/206
f 635/701/188 632/707/188 625/682/188 624/679/188
f 646/708/392 637/709/392 631/692/392 645/689/392
f 640/696/44 644/696/44 629/695/44 620/695/44
f 634/705/199 636/705/199 628/688/199 627/688/199
f 642/689/393 645/689/393 631/692/393 624/692/393
f 620/695/187 629/695/187 636/705/187 634/705/187
f 644/710/394 630/711/394 637/709/394 646/708/394
f 616/702/198 618/712/198 632/707/198 635/701/198
f 638/713/395 622/694/395 633/704/395 647/706/395
f 622/694/196 620/695/196 634/705/196 633/704/196
f 624/679/192 631/679/192 637/703/192 635/701/192
f 618/712/396 638/713/396 647/706/396 632/707/396
f 629/695/397 644/710/397 646/708/397 636/705/397
f 627/688/398 628/688/398 645/689/398 642/689/398
f 616/714/44 630/714/44 644/696/44 640/696/44
f 636/705/399 646/708/399 645/689/399 628/688/399
f 632/707/206 647/706/206 643/683/206 625/682/206
f 623/685/186 621/687/186 641/700/186 639/697/186
f 618/715/44 616/714/44 640/696/44 638/693/44
f 627/688/47 642/689/47 641/690/47 621/687/47
f 625/682/6 643/683/6 639/684/6 619/681/6
